<?xml version="1.0" encoding="utf-8"?>
<!-- Generator: Adobe Illustrator 24.0.1, SVG Export Plug-In . SVG Version: 6.00 Build 0)  -->
<svg version="1.1" id="Layer_1" xmlns="http://www.w3.org/2000/svg" xmlns:xlink="http://www.w3.org/1999/xlink" x="0px" y="0px"
	 viewBox="0 0 1080 1000" style="enable-background:new 0 0 1080 1000;" xml:space="preserve">
<style type="text/css">
	.st0{fill:#B1873D;}
	.st1{fill:#D4B888;}
	.st2{fill:none;}
</style>
<g>
	<g>
		<g>
			<g>
				<path class="st0" d="M421.2,563.9h12.2v65.9h-12.2V563.9z"/>
				<path class="st0" d="M547.1,563.9l-21.8,65.9h-13L496,581l-16.6,48.8h-13.1l-21.8-65.9h12.7l16.4,50.1l17-50.1h11.3l16.7,50.4
					l16.9-50.4H547.1z"/>
				<path class="st0" d="M597.8,614.6h-33l-6.5,15.3h-12.6l29.7-65.9h12.1l29.8,65.9h-12.8L597.8,614.6z M593.7,605l-12.4-28.8
					L568.9,605H593.7z"/>
				<path class="st0" d="M684.1,563.9v65.9H674l-36.3-44.6v44.6h-12.1v-65.9h10.1l36.3,44.6v-44.6H684.1z"/>
			</g>
		</g>
	</g>
	<g>
		<g>
			<path class="st1" d="M590.7,337.8v50.6h50.6v-50.6H590.7z M599,380v-24l24.2,24H599z M632.8,370.2l-24.2-24h24.2V370.2z"/>
		</g>
		<g>
			<rect x="481.9" y="468.8" class="st2" width="28.3" height="28.3"/>
			<path class="st0" d="M590.7,388.4v-50.6H465.1c63.6,19.2,117.1,61.8,150.5,117.7h25.7v-67.2H590.7z M575.9,372.9l-32.4-20.5
				c0,0,32.3,0,32.4,0V372.9z M606,403h20.4c0,0,0,32.4,0,32.4L606,403z"/>
			<path class="st0" d="M464.1,356.9v158.1h158.2C595.6,441.6,537.4,383.5,464.1,356.9z M510.2,497.1h-28.3v-28.3h28.3V497.1z"/>
		</g>
	</g>
</g>
</svg>
