<svg id="Layer_1" data-name="Layer 1" xmlns="http://www.w3.org/2000/svg" viewBox="0 0 312.9 221.2"><title>email</title><path d="M344.07,110.11c-.06-.17-.13-.34-.2-.51a4.89,4.89,0,0,1-.24-.64c-3.39-14.82-14.45-23.67-29.58-23.67q-126.35,0-252.69,0c-17.39,0-30,12.59-30,29.91,0,54.34,0,108.62,0,161.33a33.39,33.39,0,0,0,1,8.24c3.45,13.18,14.94,21.69,29.28,21.69h253c.43,0,.88,0,1.34,0,11.47-.71,19.9-6.14,25-16.11a35.8,35.8,0,0,0,2.26-6.11c.26-.88.53-1.76.82-2.63l.11-.32V110.45Zm-22.22,14.16V267.91l-72.53-71.84ZM142.4,211.91l2.06,2.05,7.62,7.62,5.23,5.25c2.79,2.82,5.59,5.64,8.4,8.43,12.57,12.5,31.53,12.5,44.11,0q7.41-7.37,14.77-14.8,3.9-3.92,7.81-7.84c.23-.24.47-.47.7-.69l72.81,72.17H69.6Zm45.36,10.18h0a10.53,10.53,0,0,1-7.53-3.4c-27.94-28.3-56.51-56.92-84.13-84.59L69.59,107.52H305.94l-27.08,27.15c-27.46,27.51-55.84,56-83.63,84.08A10.59,10.59,0,0,1,187.76,222.09ZM53.59,267.81V123.88l72.64,72Z" transform="translate(-31.3 -85.28)"/></svg>