<svg id="Layer_1" data-name="Layer 1" xmlns="http://www.w3.org/2000/svg" viewBox="0 0 133.46 266.68"><title>facebook</title><path d="M234.38,89.89a90,90,0,0,1,17-1.79c5.38-.16,10.79-.14,16.05-.11V58.83c-2.85,0-5.68-.12-8.46-.18-12.36-.31-24-.59-35.59.55-23,2.27-39,17.24-43.75,41.07A111.27,111.27,0,0,0,178,119.2c-.19,7.73-.15,15.44-.11,23.59,0,3.5,0,7.05,0,10.66V162H134v33.39h43.94V325.06h36.62q0-47.3,0-94.6V195.23H223l11.38,0c8.82,0,17.21,0,25.62.06.35-3.1.78-6.17,1.19-9.15.25-1.84.51-3.68.74-5.52.79-6.13,1.57-12.26,2.37-18.6l0-.31h-49v-8.5c0-4.19,0-8.33-.08-12.42-.09-10.12-.19-19.67.28-29.48C216.11,100.74,223.48,92.34,234.38,89.89Z" transform="translate(-133.95 -58.38)"/></svg>