<svg id="Layer_1" data-name="Layer 1" xmlns="http://www.w3.org/2000/svg" viewBox="0 0 190.68 312.16"><title>mobile</title><path d="M281.39,73.88c0-12.92-4.81-22.81-14.36-29.4a45.51,45.51,0,0,0-10.35-4.86c-1.5-.55-2.91-1.07-4.28-1.66l-.75-.32H120.29l-.89.48-.14.08c-16.79,2.93-29,18.2-28.54,35.78.18,6.55.13,13.25.09,19.73,0,3,0,6,0,9v33.86q0,88,0,176.07a46.73,46.73,0,0,0,.87,10c3.59,16.25,17.42,27.17,34.4,27.18l55.28,0h63.82c21.21,0,36.09-14.8,36.19-36,0-6.57,0-13.13,0-19.7V147.87C281.35,123.62,281.34,98.54,281.39,73.88ZM260.93,317.11c-.39,6.27-5.86,11.67-12.45,12.3-1.29.12-2.55.23-3.76.23H202.45q-37.55,0-75,0h0c-6.49,0-10.58-1.74-13.25-5.65a15.44,15.44,0,0,1-2.84-7c-.36-4.46-.29-9-.21-13.72l0-2H261c0,.78,0,1.56,0,2.34C261.14,308.32,261.2,312.72,260.93,317.11ZM127.43,57.8h41.76q37.77,0,75.54,0h.05c7.45,0,12,2.53,14.87,8.18a9.8,9.8,0,0,1,1.25,4c.14,4.79.12,9.52.1,14.52,0,.57,0,1.14,0,1.7H111.1l0-2.36c-.08-4.66-.14-9.06.14-13.45C111.6,64,117.07,58.65,123.66,58,125,57.9,126.21,57.8,127.43,57.8Zm-16.21,223v-174H261v174Z" transform="translate(-90.71 -37.64)"/><path d="M186.18,305.43A10.12,10.12,0,0,0,179,308.3a9.88,9.88,0,0,0-2.94,7.08,10.12,10.12,0,0,0,3,7.14,9.88,9.88,0,0,0,7,2.88h.15a10.08,10.08,0,0,0,9.84-9.78,9.89,9.89,0,0,0-9.86-10.19Z" transform="translate(-90.71 -37.64)"/><path d="M174.32,82.05q5.87.09,11.68.09c4,0,8,0,11.89-.09,6-.1,10.34-4.27,10.38-9.93s-4.41-10-10.58-10.11c-1.32,0-2.63,0-3.94,0H182.8c-2.66,0-5.4,0-8.12,0-6.14.1-10.59,4.1-10.8,9.72a9.67,9.67,0,0,0,2.63,7.09A10.84,10.84,0,0,0,174.32,82.05Z" transform="translate(-90.71 -37.64)"/></svg>