<svg fill="#b1873d" id="Layer_1" data-name="Layer 1" xmlns="http://www.w3.org/2000/svg" viewBox="0 0 339.48 274.58"><title>photo session</title><path d="M363.74,123.42c-.08-.21-.17-.41-.26-.62s-.11-.23-.13-.27c-3.11-15.9-14.6-27.14-30-29.33a108.79,108.79,0,0,0-17.26-.63c-1.76,0-3.51.05-5.25.05-1,0-1.11-.06-1.57-.86-3.65-6.31-7.43-12.68-11.07-18.85Q293.54,65,288.9,57.09A11.37,11.37,0,0,0,278.25,51c-30,.09-59.34.08-87.3,0h0A11.7,11.7,0,0,0,180,57.23c-3.38,5.82-6.87,11.71-10.24,17.41S163,86.12,159.66,91.89c-.43.74-.44.74-1.27.73-6.19-.09-12.47-.08-18.54-.06H127.62c0-1.61,0-3.15,0-4.71A26.77,26.77,0,0,0,100.83,61.4h-.06A26.79,26.79,0,0,0,73.88,88.05c0,1.49,0,3,0,4.51H72.17c-3.65,0-7.18,0-10.71,0-21,.13-36.9,16-36.92,37-.06,58.47-.05,110.4.05,158.74a40.32,40.32,0,0,0,1.92,12.2c5,15.42,18.71,25,35.85,25q63.12,0,126.23,0H326.26c1.08,0,2.14,0,3.22-.1,14.7-1.26,25.27-8.63,31.42-21.89a40.45,40.45,0,0,0,2.16-6.36c.24-.87.49-1.75.76-2.61l.16-.52V124ZM94,87.1a6.85,6.85,0,0,1,13.55.23,43.89,43.89,0,0,1,.09,5H93.88A37.92,37.92,0,0,1,94,87.1Zm250,43.77q0,78.23,0,156.46c0,11.4-6.78,18.21-18.14,18.21q-131.63,0-263.26,0c-11.32,0-18.08-6.83-18.08-18.25q0-78.24,0-156.47c0-11.78,6.5-18.26,18.29-18.27H325.74C337.51,112.56,344,119.06,344,130.87ZM182.51,92.43l3.14-5.32c3-5.11,6.14-10.39,9.17-15.62.2-.35.32-.49.32-.51a1.28,1.28,0,0,1,.4,0Q215,71,234.34,71q19.54,0,39.09.06a1.55,1.55,0,0,1,.43.1c4.08,6.7,8,13.41,12.22,20.51l.44.76Z" transform="translate(-24.5 -50.96)"/><path d="M234.59,123.73A84,84,0,0,0,202.28,130c-4.76,1.92-7.37,6.18-6.65,10.85a9.72,9.72,0,0,0,9.3,8.51,17.61,17.61,0,0,0,6.27-1.4,63,63,0,0,1,34.46-3.3c34.93,6.57,57.48,37,53.62,72.43a65.43,65.43,0,0,1-78.43,55.78c-19.2-4.36-34.76-16-43.82-32.84s-10.28-36.42-3.32-55c2.95-7.85-.7-12.51-5.1-14.26s-10.31-.85-13.48,7a83,83,0,0,0-5.82,26.32,85.59,85.59,0,0,0,85,90.26,85.8,85.8,0,0,0,15.74-1.47c43.07-8.06,72.92-46.76,69.43-90C315.89,157.8,279.38,123.79,234.59,123.73Z" transform="translate(-24.5 -50.96)"/><path d="M194.41,249.07a56.33,56.33,0,0,0,40.07,16.7h0a56.73,56.73,0,1,0,0-113.46h0a56.65,56.65,0,0,0-40.12,96.76Zm3.34-40.26a36.8,36.8,0,0,1,36.86-36.52h.09a36.75,36.75,0,0,1-.23,73.49h-.14A36.83,36.83,0,0,1,197.75,208.81Z" transform="translate(-24.5 -50.96)"/><path d="M181,165.75h.27a10,10,0,1,0,0-19.92h0a9.85,9.85,0,0,0-10,9.8A10.05,10.05,0,0,0,181,165.75Z" transform="translate(-24.5 -50.96)"/></svg>