<svg fill="#ffffff" id="Layer_1" data-name="Layer 1" xmlns="http://www.w3.org/2000/svg" viewBox="0 0 281.31 280.91"><title>search</title><path d="M270.9,248c11.46,11.42,22.79,22.72,34.13,34s22.67,22.56,33.82,33.67l-17,17.06L288.14,299c-11.3-11.32-22.59-22.65-34.07-34.17-32.59,24.9-68.69,33.17-108.4,22.47-28.91-7.79-51.68-24.66-68.09-49.67C44.41,187.06,53.2,121.43,98.09,82.23c46-40.18,112.64-40.57,158.17-1.4C303.3,121.31,313.5,195.1,270.9,248Zm-93.29,19.8A96,96,0,1,0,81.8,171.44,95.93,95.93,0,0,0,177.61,267.75Z" transform="translate(-57.54 -51.77)"/></svg>