<?xml version="1.0" encoding="utf-8"?>
<!-- Generator: Adobe Illustrator 24.0.1, SVG Export Plug-In . SVG Version: 6.00 Build 0)  -->
<svg version="1.1" id="Layer_1" xmlns="http://www.w3.org/2000/svg" xmlns:xlink="http://www.w3.org/1999/xlink" x="0px" y="0px"
	 viewBox="0 0 1080 1000" style="enable-background:new 0 0 1080 1000;" xml:space="preserve">
<style type="text/css">
	.st0{fill:#B1873D;}
	.st1{fill:#D4B888;}
</style>
<g>
	<g>
		<g>
			<path class="st0" d="M438.3,417.4h23.4v125.9h-23.4V417.4z"/>
			<path class="st0" d="M678.8,417.4l-41.7,125.9h-24.8l-31.1-93.2l-31.7,93.2h-25l-41.7-125.9H507l31.3,95.7l32.6-95.7h21.6
				l31.8,96.2l32.2-96.2H678.8z"/>
			<path class="st0" d="M775.6,514.1h-63l-12.4,29.1h-24.1l56.7-125.9h23l56.8,125.9h-24.5L775.6,514.1z M767.9,495.8l-23.7-55
				l-23.6,55H767.9z"/>
			<path class="st0" d="M940.6,417.4v125.9h-19.2L851.9,458v85.3h-23.2V417.4h19.2l69.4,85.3v-85.3H940.6z"/>
		</g>
	</g>
</g>
<g>
	<g>
		<path class="st0" d="M244,430.4v112.9h113C338,490.9,296.4,449.4,244,430.4z M277,530.5h-20.2v-20.2H277V530.5z"/>
	</g>
	<g>
		<path class="st1" d="M334.4,416.7v36.1h36.1v-36.1H334.4z M340.4,446.9v-17.2l17.3,17.2H340.4z M364.5,439.9l-17.3-17.2h17.3
			V439.9z"/>
	</g>
	<g>
		<path class="st0" d="M334.4,452.9v-36.1h-89.7c45.4,13.7,83.6,44.1,107.5,84.1h18.4v-48H334.4z M323.9,441.8l-23.1-14.6
			c0,0,23.1,0,23.1,0V441.8z M345.4,463.4H360c0,0,0,23.1,0,23.1L345.4,463.4z"/>
	</g>
</g>
</svg>
