<?xml version="1.0" encoding="utf-8"?>
<!-- Generator: Adobe Illustrator 24.0.1, SVG Export Plug-In . SVG Version: 6.00 Build 0)  -->
<svg version="1.1" id="Layer_1" xmlns="http://www.w3.org/2000/svg" xmlns:xlink="http://www.w3.org/1999/xlink" x="0px" y="0px"
	 viewBox="0 0 1590 1065" style="enable-background:new 0 0 1590 1065;" xml:space="preserve">
<style type="text/css">
	.st0{opacity:0.35;fill:#FFFFFF;}
	.st1{opacity:0.35;}
	.st2{fill:#FFFFFF;}
</style>
<g>
	<g>
		<g>
			<g>
				<g>
					<path class="st0" d="M478.9,519.3v10.3h10.3v-10.3H478.9z M480.6,527.8V523l4.9,4.9H480.6z M487.5,525.9l-4.9-4.9h4.9V525.9z"
						/>
					<path class="st0" d="M453.1,523.1v32.2h32.2C479.9,540.4,468,528.6,453.1,523.1z M462.5,551.7h-5.8v-5.8h5.8V551.7z"/>
					<path class="st0" d="M478.9,529.6v-10.3h-25.6c13,3.9,23.9,12.6,30.7,24h5.2v-13.7H478.9z M475.9,526.4l-6.6-4.2
						c0,0,6.6,0,6.6,0V526.4z M482,532.6h4.2c0,0,0,6.6,0,6.6L482,532.6z"/>
				</g>
				<g>
					<path class="st0" d="M811.3,519.3v10.3h10.3v-10.3H811.3z M813,527.8V523l4.9,4.9H813z M819.9,525.9L815,521h4.9V525.9z"/>
					<path class="st0" d="M785.5,523.1v32.2h32.2C812.3,540.4,800.5,528.6,785.5,523.1z M794.9,551.7h-5.8v-5.8h5.8V551.7z"/>
					<path class="st0" d="M811.3,529.6v-10.3h-25.6c13,3.9,23.9,12.6,30.7,24h5.2v-13.7H811.3z M808.3,526.4l-6.6-4.2
						c0,0,6.6,0,6.6,0V526.4z M814.5,532.6h4.2c0,0,0,6.6,0,6.6L814.5,532.6z"/>
				</g>
				<g>
					<path class="st0" d="M1143.8,519.3v10.3h10.3v-10.3H1143.8z M1145.5,527.8V523l4.9,4.9H1145.5z M1152.4,525.9l-4.9-4.9h4.9
						V525.9z"/>
					<path class="st0" d="M1118,523.1v32.2h32.2C1144.8,540.4,1132.9,528.6,1118,523.1z M1127.4,551.7h-5.8v-5.8h5.8V551.7z"/>
					<path class="st0" d="M1143.8,529.6v-10.3h-25.6c13,3.9,23.9,12.6,30.7,24h5.2v-13.7H1143.8z M1140.8,526.4l-6.6-4.2
						c0,0,6.6,0,6.6,0V526.4z M1146.9,532.6h4.2c0,0,0,6.6,0,6.6L1146.9,532.6z"/>
				</g>
				<g>
					<path class="st0" d="M307.4,372v10.3h10.3V372H307.4z M309.1,380.6v-4.9l4.9,4.9H309.1z M315.9,378.6l-4.9-4.9h4.9V378.6z"/>
					<path class="st0" d="M281.6,375.9v32.2h32.2C308.4,393.1,296.5,381.3,281.6,375.9z M291,404.4h-5.8v-5.8h5.8V404.4z"/>
					<path class="st0" d="M307.4,382.3V372h-25.6c13,3.9,23.9,12.6,30.7,24h5.2v-13.7H307.4z M304.4,379.1l-6.6-4.2c0,0,6.6,0,6.6,0
						V379.1z M310.5,385.3h4.2c0,0,0,6.6,0,6.6L310.5,385.3z"/>
				</g>
				<g>
					<path class="st0" d="M639.8,372v10.3h10.3V372H639.8z M641.5,380.6v-4.9l4.9,4.9H641.5z M648.4,378.6l-4.9-4.9h4.9V378.6z"/>
					<path class="st0" d="M614,375.9v32.2h32.2C640.8,393.1,629,381.3,614,375.9z M623.4,404.4h-5.8v-5.8h5.8V404.4z"/>
					<path class="st0" d="M639.8,382.3V372h-25.6c13,3.9,23.9,12.6,30.7,24h5.2v-13.7H639.8z M636.8,379.1l-6.6-4.2c0,0,6.6,0,6.6,0
						V379.1z M642.9,385.3h4.2c0,0,0,6.6,0,6.6L642.9,385.3z"/>
				</g>
				<g>
					<path class="st0" d="M972.3,372v10.3h10.3V372H972.3z M974,380.6v-4.9l4.9,4.9H974z M980.9,378.6l-4.9-4.9h4.9V378.6z"/>
					<path class="st0" d="M946.5,375.9v32.2h32.2C973.3,393.1,961.4,381.3,946.5,375.9z M955.9,404.4h-5.8v-5.8h5.8V404.4z"/>
					<path class="st0" d="M972.3,382.3V372h-25.6c13,3.9,23.9,12.6,30.7,24h5.2v-13.7H972.3z M969.3,379.1l-6.6-4.2c0,0,6.6,0,6.6,0
						V379.1z M975.4,385.3h4.2c0,0,0,6.6,0,6.6L975.4,385.3z"/>
				</g>
				<g>
					<path class="st0" d="M1278.9,375.9v32.2h32.2C1305.7,393.1,1293.9,381.3,1278.9,375.9z M1288.3,404.4h-5.8v-5.8h5.8V404.4z"/>
					<path class="st0" d="M1304.7,382.3V372h-25.6c13,3.9,23.9,12.6,30.7,24h5.2v-13.7H1304.7z M1301.7,379.1l-6.6-4.2
						c0,0,6.6,0,6.6,0V379.1z M1307.9,385.3h4.2c0,0,0,6.6,0,6.6L1307.9,385.3z"/>
					<path class="st0" d="M1304.7,372v10.3h10.3V372H1304.7z M1306.4,380.6v-4.9l4.9,4.9H1306.4z M1313.3,378.6l-4.9-4.9h4.9V378.6z
						"/>
				</g>
				<g>
					<path class="st0" d="M307.4,666.5v10.3h10.3v-10.3H307.4z M309.1,675.1v-4.9l4.9,4.9H309.1z M315.9,673.1l-4.9-4.9h4.9V673.1z"
						/>
					<path class="st0" d="M281.6,670.4v32.2h32.2C308.4,687.7,296.5,675.8,281.6,670.4z M291,699h-5.8v-5.8h5.8V699z"/>
					<path class="st0" d="M307.4,676.8v-10.3h-25.6c13,3.9,23.9,12.6,30.7,24h5.2v-13.7H307.4z M304.4,673.7l-6.6-4.2
						c0,0,6.6,0,6.6,0V673.7z M310.5,679.8h4.2c0,0,0,6.6,0,6.6L310.5,679.8z"/>
				</g>
				<g>
					<path class="st0" d="M639.8,666.5v10.3h10.3v-10.3H639.8z M641.5,675.1v-4.9l4.9,4.9H641.5z M648.4,673.1l-4.9-4.9h4.9V673.1z"
						/>
					<path class="st0" d="M614,670.4v32.2h32.2C640.8,687.7,629,675.8,614,670.4z M623.4,699h-5.8v-5.8h5.8V699z"/>
					<path class="st0" d="M639.8,676.8v-10.3h-25.6c13,3.9,23.9,12.6,30.7,24h5.2v-13.7H639.8z M636.8,673.7l-6.6-4.2
						c0,0,6.6,0,6.6,0V673.7z M642.9,679.8h4.2c0,0,0,6.6,0,6.6L642.9,679.8z"/>
				</g>
				<g>
					<path class="st0" d="M972.3,666.5v10.3h10.3v-10.3H972.3z M974,675.1v-4.9l4.9,4.9H974z M980.9,673.1l-4.9-4.9h4.9V673.1z"/>
					<path class="st0" d="M946.5,670.4v32.2h32.2C973.3,687.7,961.4,675.8,946.5,670.4z M955.9,699h-5.8v-5.8h5.8V699z"/>
					<path class="st0" d="M972.3,676.8v-10.3h-25.6c13,3.9,23.9,12.6,30.7,24h5.2v-13.7H972.3z M969.3,673.7l-6.6-4.2
						c0,0,6.6,0,6.6,0V673.7z M975.4,679.8h4.2c0,0,0,6.6,0,6.6L975.4,679.8z"/>
				</g>
				<g>
					<path class="st0" d="M1304.7,666.5v10.3h10.3v-10.3H1304.7z M1306.4,675.1v-4.9l4.9,4.9H1306.4z M1313.3,673.1l-4.9-4.9h4.9
						V673.1z"/>
					<path class="st0" d="M1278.9,670.4v32.2h32.2C1305.7,687.7,1293.9,675.8,1278.9,670.4z M1288.3,699h-5.8v-5.8h5.8V699z"/>
					<path class="st0" d="M1304.7,676.8v-10.3h-25.6c13,3.9,23.9,12.6,30.7,24h5.2v-13.7H1304.7z M1301.7,673.7l-6.6-4.2
						c0,0,6.6,0,6.6,0V673.7z M1307.9,679.8h4.2c0,0,0,6.6,0,6.6L1307.9,679.8z"/>
				</g>
				<g>
					<path class="st0" d="M972.3,77.4v10.3h10.3V77.4H972.3z M974,86v-4.9l4.9,4.9H974z M980.9,84l-4.9-4.9h4.9V84z"/>
					<path class="st0" d="M946.5,81.3v32.2h32.2C973.3,98.6,961.4,86.7,946.5,81.3z M955.9,109.9h-5.8v-5.8h5.8V109.9z"/>
					<path class="st0" d="M972.3,87.7V77.4h-25.6c13,3.9,23.9,12.6,30.7,24h5.2V87.7H972.3z M969.3,84.6l-6.6-4.2c0,0,6.6,0,6.6,0
						V84.6z M975.4,90.7h4.2c0,0,0,6.6,0,6.6L975.4,90.7z"/>
				</g>
				<g>
					<path class="st0" d="M1304.7,77.4v10.3h10.3V77.4H1304.7z M1306.4,86v-4.9l4.9,4.9H1306.4z M1313.3,84l-4.9-4.9h4.9V84z"/>
					<path class="st0" d="M1278.9,81.3v32.2h32.2C1305.7,98.6,1293.9,86.7,1278.9,81.3z M1288.3,109.9h-5.8v-5.8h5.8V109.9z"/>
					<path class="st0" d="M1304.7,87.7V77.4h-25.6c13,3.9,23.9,12.6,30.7,24h5.2V87.7H1304.7z M1301.7,84.6l-6.6-4.2
						c0,0,6.6,0,6.6,0V84.6z M1307.9,90.7h4.2c0,0,0,6.6,0,6.6L1307.9,90.7z"/>
				</g>
				<g>
					<path class="st0" d="M307.4,961.1v10.3h10.3v-10.3H307.4z M309.1,969.7v-4.9l4.9,4.9H309.1z M315.9,967.7l-4.9-4.9h4.9V967.7z"
						/>
					<path class="st0" d="M281.6,965v32.2h32.2C308.4,982.2,296.5,970.4,281.6,965z M291,993.5h-5.8v-5.8h5.8V993.5z"/>
					<path class="st0" d="M307.4,971.4v-10.3h-25.6c13,3.9,23.9,12.6,30.7,24h5.2v-13.7H307.4z M304.4,968.2l-6.6-4.2
						c0,0,6.6,0,6.6,0V968.2z M310.5,974.4h4.2c0,0,0,6.6,0,6.6L310.5,974.4z"/>
				</g>
				<g>
					<path class="st0" d="M639.8,961.1v10.3h10.3v-10.3H639.8z M641.5,969.7v-4.9l4.9,4.9H641.5z M648.4,967.7l-4.9-4.9h4.9V967.7z"
						/>
					<path class="st0" d="M614,965v32.2h32.2C640.8,982.2,629,970.4,614,965z M623.4,993.5h-5.8v-5.8h5.8V993.5z"/>
					<path class="st0" d="M639.8,971.4v-10.3h-25.6c13,3.9,23.9,12.6,30.7,24h5.2v-13.7H639.8z M636.8,968.2l-6.6-4.2
						c0,0,6.6,0,6.6,0V968.2z M642.9,974.4h4.2c0,0,0,6.6,0,6.6L642.9,974.4z"/>
				</g>
				<g>
					<path class="st0" d="M972.3,961.1v10.3h10.3v-10.3H972.3z M974,969.7v-4.9l4.9,4.9H974z M980.9,967.7l-4.9-4.9h4.9V967.7z"/>
					<path class="st0" d="M946.5,965v32.2h32.2C973.3,982.2,961.4,970.4,946.5,965z M955.9,993.5h-5.8v-5.8h5.8V993.5z"/>
					<path class="st0" d="M972.3,971.4v-10.3h-25.6c13,3.9,23.9,12.6,30.7,24h5.2v-13.7H972.3z M969.3,968.2l-6.6-4.2
						c0,0,6.6,0,6.6,0V968.2z M975.4,974.4h4.2c0,0,0,6.6,0,6.6L975.4,974.4z"/>
				</g>
				<g>
					<path class="st0" d="M1304.7,961.1v10.3h10.3v-10.3H1304.7z M1306.4,969.7v-4.9l4.9,4.9H1306.4z M1313.3,967.7l-4.9-4.9h4.9
						V967.7z"/>
					<path class="st0" d="M1278.9,965v32.2h32.2C1305.7,982.2,1293.9,970.4,1278.9,965z M1288.3,993.5h-5.8v-5.8h5.8V993.5z"/>
					<path class="st0" d="M1304.7,971.4v-10.3h-25.6c13,3.9,23.9,12.6,30.7,24h5.2v-13.7H1304.7z M1301.7,968.2l-6.6-4.2
						c0,0,6.6,0,6.6,0V968.2z M1307.9,974.4h4.2c0,0,0,6.6,0,6.6L1307.9,974.4z"/>
				</g>
				<g>
					<path class="st0" d="M139.6,224.7V235h10.3v-10.3H139.6z M141.3,233.3v-4.9l4.9,4.9H141.3z M148.2,231.3l-4.9-4.9h4.9V231.3z"
						/>
					<path class="st0" d="M113.8,228.6v32.2H146C140.6,245.9,128.7,234,113.8,228.6z M123.2,257.2h-5.8v-5.8h5.8V257.2z"/>
					<path class="st0" d="M139.6,235v-10.3H114c13,3.9,23.9,12.6,30.7,24h5.2V235H139.6z M136.6,231.9l-6.6-4.2c0,0,6.6,0,6.6,0
						V231.9z M142.7,238h4.2c0,0,0,6.6,0,6.6L142.7,238z"/>
				</g>
				<g>
					<path class="st0" d="M808.8,224.7V235h10.3v-10.3H808.8z M810.6,233.3v-4.9l4.9,4.9H810.6z M817.4,231.3l-4.9-4.9h4.9V231.3z"
						/>
					<path class="st0" d="M783.1,228.6v32.2h32.2C809.9,245.9,798,234,783.1,228.6z M792.5,257.2h-5.8v-5.8h5.8V257.2z"/>
					<path class="st0" d="M808.8,235v-10.3h-25.6c13,3.9,23.9,12.6,30.7,24h5.2V235H808.8z M805.8,231.9l-6.6-4.2c0,0,6.6,0,6.6,0
						V231.9z M812,238h4.2c0,0,0,6.6,0,6.6L812,238z"/>
				</g>
				<g>
					<path class="st0" d="M1471.3,224.7V235h10.3v-10.3H1471.3z M1473,233.3v-4.9l4.9,4.9H1473z M1479.9,231.3l-4.9-4.9h4.9V231.3z"
						/>
					<path class="st0" d="M1445.5,228.6v32.2h32.2C1472.3,245.9,1460.4,234,1445.5,228.6z M1454.9,257.2h-5.8v-5.8h5.8V257.2z"/>
					<path class="st0" d="M1471.3,235v-10.3h-25.6c13,3.9,23.9,12.6,30.7,24h5.2V235H1471.3z M1468.3,231.9l-6.6-4.2
						c0,0,6.6,0,6.6,0V231.9z M1474.4,238h4.2c0,0,0,6.6,0,6.6L1474.4,238z"/>
				</g>
				<g>
					<path class="st0" d="M811.3,813.8v10.3h10.3v-10.3H811.3z M813,822.4v-4.9l4.9,4.9H813z M819.9,820.4l-4.9-4.9h4.9V820.4z"/>
					<path class="st0" d="M785.5,817.7v32.2h32.2C812.3,835,800.5,823.1,785.5,817.7z M794.9,846.3h-5.8v-5.8h5.8V846.3z"/>
					<path class="st0" d="M811.3,824.1v-10.3h-25.6c13,3.9,23.9,12.6,30.7,24h5.2v-13.7H811.3z M808.3,821l-6.6-4.2c0,0,6.6,0,6.6,0
						V821z M814.5,827.1h4.2c0,0,0,6.6,0,6.6L814.5,827.1z"/>
				</g>
				<g>
					<path class="st0" d="M1471.3,813.8v10.3h10.3v-10.3H1471.3z M1473,822.4v-4.9l4.9,4.9H1473z M1479.9,820.4l-4.9-4.9h4.9V820.4z
						"/>
					<path class="st0" d="M1445.5,817.7v32.2h32.2C1472.3,835,1460.4,823.1,1445.5,817.7z M1454.9,846.3h-5.8v-5.8h5.8V846.3z"/>
					<path class="st0" d="M1471.3,824.1v-10.3h-25.6c13,3.9,23.9,12.6,30.7,24h5.2v-13.7H1471.3z M1468.3,821l-6.6-4.2
						c0,0,6.6,0,6.6,0V821z M1474.4,827.1h4.2c0,0,0,6.6,0,6.6L1474.4,827.1z"/>
				</g>
				<g>
					<path class="st0" d="M136.5,813.8v10.3h10.3v-10.3H136.5z M138.2,822.4v-4.9l4.9,4.9H138.2z M145.1,820.4l-4.9-4.9h4.9V820.4z"
						/>
					<path class="st0" d="M110.7,817.7v32.2h32.2C137.5,835,125.6,823.1,110.7,817.7z M120.1,846.3h-5.8v-5.8h5.8V846.3z"/>
					<path class="st0" d="M136.5,824.1v-10.3h-25.6c13,3.9,23.9,12.6,30.7,24h5.2v-13.7H136.5z M133.5,821l-6.6-4.2c0,0,6.6,0,6.6,0
						V821z M139.6,827.1h4.2c0,0,0,6.6,0,6.6L139.6,827.1z"/>
				</g>
				<g class="st1">
					<g>
						<path class="st2" d="M1019.7,885.2l8.2-7.3l39.4,44.3l-8.2,7.3L1019.7,885.2z"/>
						<path class="st2" d="M1104.3,809.9l24.7,57.4l-8.7,7.8l-40.1-23.1l18,42.7l-8.8,7.8l-54.1-31.3l8.5-7.6l41,23.9l-18.5-43.9
							l7.6-6.8l41.3,23.9l-18.8-43.9L1104.3,809.9z"/>
						<path class="st2" d="M1168.7,813.7l-22.2,19.7l4.7,14.1l-8.5,7.5l-19.4-62.1l8.1-7.2l59.4,26.5l-8.6,7.7L1168.7,813.7z
							 M1160.2,809.7l-25.6-11.9l8.9,26.7L1160.2,809.7z"/>
						<path class="st2" d="M1196.5,728.1l39.4,44.3l-6.8,6l-51.1-8.3l26.7,30l-8.2,7.3l-39.4-44.3l6.8-6l51.1,8.3l-26.7-30
							L1196.5,728.1z"/>
					</g>
				</g>
				<g class="st1">
					<g>
						<path class="st2" d="M355.1,884.3l8.2-7.3l39.4,44.3l-8.2,7.3L355.1,884.3z"/>
						<path class="st2" d="M439.7,809l24.7,57.4l-8.7,7.8l-40.1-23.1l18,42.7l-8.8,7.8l-54.1-31.3l8.5-7.6l41,23.9l-18.5-43.9
							l7.6-6.8l41.3,23.9L431.9,816L439.7,809z"/>
						<path class="st2" d="M504.1,812.8l-22.2,19.7l4.7,14.1l-8.5,7.5l-19.4-62.1l8.1-7.2l59.4,26.5l-8.6,7.7L504.1,812.8z
							 M495.6,808.8L470,796.8l8.9,26.7L495.6,808.8z"/>
						<path class="st2" d="M531.9,727.1l39.4,44.3l-6.8,6l-51.1-8.3l26.7,30l-8.2,7.3l-39.4-44.3l6.8-6l51.1,8.3l-26.7-30
							L531.9,727.1z"/>
					</g>
				</g>
				<g class="st1">
					<g>
						<path class="st2" d="M1017.8,296.1l8.2-7.3l39.4,44.3l-8.2,7.3L1017.8,296.1z"/>
						<path class="st2" d="M1102.5,220.8l24.7,57.4l-8.7,7.8l-40.1-23.1l18,42.7l-8.8,7.8l-54.1-31.3l8.5-7.6l41,23.9l-18.5-43.9
							l7.6-6.8l41.3,23.9l-18.8-43.9L1102.5,220.8z"/>
						<path class="st2" d="M1166.8,224.6l-22.2,19.7l4.7,14.1l-8.5,7.5l-19.4-62.1l8.1-7.2l59.4,26.5l-8.6,7.7L1166.8,224.6z
							 M1158.4,220.6l-25.6-11.9l8.9,26.7L1158.4,220.6z"/>
						<path class="st2" d="M1194.6,139l39.4,44.3l-6.8,6l-51.1-8.3l26.7,30l-8.2,7.3l-39.4-44.3l6.8-6l51.1,8.3l-26.7-30L1194.6,139
							z"/>
					</g>
				</g>
				<g class="st1">
					<g>
						<path class="st2" d="M22.3,590.6l8.2-7.3l39.4,44.3l-8.2,7.3L22.3,590.6z"/>
						<path class="st2" d="M107,515.4l24.7,57.4l-8.7,7.8l-40.1-23.1l18,42.7L92,608l-54.1-31.3l8.5-7.6l41,23.9L69,549.2l7.6-6.8
							l41.3,23.9l-18.8-43.9L107,515.4z"/>
						<path class="st2" d="M171.3,519.2l-22.2,19.7l4.7,14.1l-8.5,7.5L126,498.5l8.1-7.2l59.4,26.5l-8.6,7.7L171.3,519.2z
							 M162.8,515.1l-25.6-11.9l8.9,26.7L162.8,515.1z"/>
						<path class="st2" d="M199.1,433.5l39.4,44.3l-6.8,6l-51.1-8.3l26.7,30l-8.2,7.3l-39.4-44.3l6.8-6l51.1,8.3l-26.7-30
							L199.1,433.5z"/>
					</g>
				</g>
				<g class="st1">
					<g>
						<path class="st2" d="M1350.3,590.6l8.2-7.3l39.4,44.3l-8.2,7.3L1350.3,590.6z"/>
						<path class="st2" d="M1434.9,515.4l24.7,57.4l-8.7,7.8l-40.1-23.1l18,42.7l-8.8,7.8l-54.1-31.3l8.5-7.6l41,23.9l-18.5-43.9
							l7.6-6.8l41.3,23.9l-18.8-43.9L1434.9,515.4z"/>
						<path class="st2" d="M1499.3,519.2l-22.2,19.7l4.7,14.1l-8.5,7.5l-19.4-62.1l8.1-7.2l59.4,26.5l-8.6,7.7L1499.3,519.2z
							 M1490.8,515.1l-25.6-11.9l8.9,26.7L1490.8,515.1z"/>
						<path class="st2" d="M1527.1,433.5l39.4,44.3l-6.8,6l-51.1-8.3l26.7,30l-8.2,7.3l-39.4-44.3l6.8-6l51.1,8.3l-26.7-30
							L1527.1,433.5z"/>
					</g>
				</g>
				<g class="st1">
					<g>
						<path class="st2" d="M422.6,232.8l8.2-7.3l39.4,44.3l-8.2,7.3L422.6,232.8z"/>
						<path class="st2" d="M507.3,157.5l24.7,57.4l-8.7,7.8l-40.1-23.1l18,42.7l-8.8,7.8l-54.1-31.3l8.5-7.6l41,23.9l-18.5-43.9
							l7.6-6.8l41.3,23.9l-18.8-43.9L507.3,157.5z"/>
						<path class="st2" d="M571.6,161.3L549.5,181l4.7,14.1l-8.5,7.5l-19.4-62.1l8.1-7.2l59.4,26.5l-8.6,7.7L571.6,161.3z
							 M563.2,157.3l-25.6-11.9l8.9,26.7L563.2,157.3z"/>
						<path class="st2" d="M599.4,75.6l39.4,44.3l-6.8,6l-51.1-8.3l26.7,30l-8.2,7.3L560,110.6l6.8-6l51.1,8.3l-26.7-30L599.4,75.6z
							"/>
					</g>
				</g>
			</g>
		</g>
	</g>
</g>
</svg>
