<?xml version="1.0" encoding="utf-8"?>
<!-- Generator: Adobe Illustrator 24.0.1, SVG Export Plug-In . SVG Version: 6.00 Build 0)  -->
<svg version="1.1" id="Layer_1" xmlns="http://www.w3.org/2000/svg" xmlns:xlink="http://www.w3.org/1999/xlink" x="0px" y="0px"
	 viewBox="0 0 1080 1000" style="enable-background:new 0 0 1080 1000;" xml:space="preserve">
<style type="text/css">
	.st0{opacity:0.35;fill:#FFFFFF;}
	.st1{opacity:0.35;}
	.st2{fill:#FFFFFF;}
</style>
<g>
	<g>
		<g>
			<path class="st0" d="M222.8,404.9v48h48v-48H222.8z M230.7,445v-22.8l23,22.8H230.7z M262.8,435.8l-23-22.8h23V435.8z"/>
			<path class="st0" d="M102.6,423v150.1h150.2C227.5,503.5,172.2,448.3,102.6,423z M146.4,556.2h-26.9v-26.9h26.9V556.2z"/>
			<path class="st0" d="M222.8,453v-48H103.5c60.4,18.3,111.1,58.7,142.8,111.8h24.4V453H222.8z M208.8,438.3l-30.7-19.4
				c0,0,30.7,0,30.7,0V438.3z M237.4,466.9h19.4c0,0,0,30.7,0,30.7L237.4,466.9z"/>
		</g>
	</g>
	<g class="st1">
		<g>
			<path class="st2" d="M330.3,406.4h31v166.9h-31V406.4z"/>
			<path class="st2" d="M649.1,406.4l-55.3,166.9h-32.9l-41.2-123.5l-42,123.5h-33.1l-55.3-166.9h32.2l41.5,126.8L506,406.4h28.6
				l42.2,127.6l42.7-127.6H649.1z"/>
			<path class="st2" d="M777.3,534.6h-83.5l-16.5,38.6h-31.9l75.1-166.9h30.5l75.3,166.9H794L777.3,534.6z M767.1,510.3l-31.5-73
				l-31.2,73H767.1z"/>
			<path class="st2" d="M996,406.4v166.9h-25.5l-92-113v113h-30.8V406.4h25.5l92,113v-113H996z"/>
		</g>
	</g>
</g>
</svg>
