<?xml version="1.0" encoding="utf-8"?>
<!-- Generator: Adobe Illustrator 24.0.1, SVG Export Plug-In . SVG Version: 6.00 Build 0)  -->
<svg version="1.1" id="Layer_1" xmlns="http://www.w3.org/2000/svg" xmlns:xlink="http://www.w3.org/1999/xlink" x="0px" y="0px"
	 viewBox="0 0 1080 1000" style="enable-background:new 0 0 1080 1000;" xml:space="preserve">
<style type="text/css">
	.st0{fill:#B1873D;}
	.st1{fill:#D4B888;}
	.st2{fill:none;}
</style>
<g>
	<g>
		<g>
			<g>
				<path class="st0" d="M421.2,563.9h12.2v65.9h-12.2V563.9z"/>
				<path class="st0" d="M547.1,563.9l-21.8,65.9h-13L496,581l-16.6,48.8h-13.1l-21.8-65.9h12.7l16.4,50.1l17-50.1h11.3l16.7,50.4
					l16.9-50.4H547.1z"/>
				<path class="st0" d="M597.8,614.6h-33l-6.5,15.3h-12.6l29.7-65.9h12.1l29.8,65.9h-12.8L597.8,614.6z M593.7,605l-12.4-28.8
					L568.9,605H593.7z"/>
				<path class="st0" d="M684.1,563.9v65.9H674l-36.3-44.6v44.6h-12.1v-65.9h10.1l36.3,44.6v-44.6H684.1z"/>
			</g>
		</g>
		<g>
			<path class="st0" d="M437.1,663.7h-2l-1.9-4.3h-8.9l-1.9,4.3h-1.9l7.4-16.5h1.7L437.1,663.7z M428.7,649.4l-3.7,8.3h7.4
				L428.7,649.4z"/>
			<path class="st0" d="M454.7,647.4h1.8v16.3H455l-10.6-13.4v13.4h-1.8v-16.3h1.7l10.3,13.1V647.4z"/>
			<path class="st0" d="M469.6,663.7h-1.8v-14.6h-5.5v-1.7h12.8v1.7h-5.5V663.7z"/>
			<path class="st0" d="M482.9,647.4v16.3H481v-16.3H482.9z"/>
			<path class="st0" d="M506.1,662.8l-1.3,1.4l-2.1-2c-0.7,0.5-1.5,1-2.3,1.3c-0.9,0.3-1.8,0.5-2.8,0.5c-1.2,0-2.4-0.2-3.4-0.7
				c-1-0.5-1.9-1.1-2.6-1.8c-0.7-0.8-1.3-1.7-1.7-2.7c-0.4-1-0.6-2.1-0.6-3.2c0-1.1,0.2-2.2,0.6-3.2c0.4-1,1-1.9,1.7-2.7
				c0.7-0.8,1.6-1.4,2.6-1.9s2.2-0.7,3.4-0.7c1.2,0,2.4,0.2,3.4,0.7c1,0.5,1.9,1.1,2.6,1.8c0.7,0.8,1.3,1.7,1.7,2.7
				c0.4,1,0.6,2.1,0.6,3.2c0,1-0.2,2-0.5,3c-0.3,0.9-0.8,1.8-1.5,2.5L506.1,662.8z M498.3,658.5l1.2-1.4l3,2.7
				c0.5-0.6,0.8-1.2,1-1.9c0.2-0.7,0.4-1.5,0.4-2.3c0-0.9-0.2-1.8-0.5-2.6s-0.8-1.5-1.3-2.1c-0.6-0.6-1.3-1.1-2-1.4
				c-0.8-0.4-1.6-0.5-2.6-0.5c-0.9,0-1.8,0.2-2.6,0.5c-0.8,0.4-1.5,0.8-2,1.4c-0.6,0.6-1,1.3-1.3,2.1c-0.3,0.8-0.5,1.7-0.5,2.6
				s0.2,1.8,0.5,2.6c0.3,0.8,0.8,1.5,1.3,2.1c0.6,0.6,1.3,1.1,2,1.4c0.8,0.4,1.6,0.5,2.6,0.5c0.7,0,1.4-0.1,2.1-0.3
				c0.6-0.2,1.2-0.5,1.7-0.9L498.3,658.5z"/>
			<path class="st0" d="M525.5,656.7c0,1.2-0.2,2.2-0.5,3.2c-0.3,0.9-0.8,1.7-1.4,2.3c-0.6,0.6-1.3,1.1-2.1,1.4
				c-0.8,0.3-1.8,0.5-2.8,0.5c-1,0-1.9-0.2-2.8-0.5c-0.8-0.3-1.5-0.8-2.1-1.4c-0.6-0.6-1.1-1.3-1.4-2.2c-0.3-0.9-0.5-1.9-0.5-3.1
				v-9.5h1.8v9.4c0,1.8,0.4,3.1,1.3,4.1c0.9,0.9,2.1,1.4,3.7,1.4c1.5,0,2.7-0.5,3.6-1.4c0.9-0.9,1.3-2.2,1.3-4v-9.5h1.8V656.7z"/>
			<path class="st0" d="M544,649.1h-10v5.6h8.9v1.7h-8.9v5.7h10.1v1.7h-11.9v-16.3H544V649.1z"/>
			<path class="st0" d="M570.9,663.3c-1.1,0.5-2.4,0.7-3.7,0.7c-1.3,0-2.4-0.2-3.5-0.7c-1-0.4-1.9-1-2.6-1.8
				c-0.7-0.8-1.3-1.7-1.7-2.7c-0.4-1-0.6-2.1-0.6-3.3c0-1.1,0.2-2.2,0.6-3.2c0.4-1,1-1.9,1.7-2.7c0.7-0.8,1.6-1.4,2.6-1.9
				c1-0.5,2.1-0.7,3.4-0.7c0.7,0,1.3,0,1.9,0.1c0.6,0.1,1.1,0.2,1.6,0.4c0.5,0.2,1,0.4,1.4,0.7c0.4,0.3,0.8,0.6,1.2,0.9l-1.2,1.4
				c-0.3-0.3-0.6-0.5-1-0.8c-0.3-0.2-0.7-0.4-1.1-0.6c-0.4-0.2-0.8-0.3-1.3-0.4c-0.5-0.1-1-0.1-1.6-0.1c-0.9,0-1.7,0.2-2.5,0.5
				c-0.8,0.4-1.4,0.8-2,1.5c-0.5,0.6-1,1.3-1.3,2.1c-0.3,0.8-0.5,1.7-0.5,2.6c0,1,0.2,1.9,0.5,2.7c0.3,0.8,0.7,1.6,1.3,2.2
				c0.6,0.6,1.2,1.1,2,1.4c0.8,0.3,1.7,0.5,2.7,0.5c0.9,0,1.8-0.2,2.6-0.5c0.8-0.3,1.5-0.7,2.1-1.2v-4.1h-5V655h6.7v6.5
				C572.9,662.2,572,662.8,570.9,663.3z"/>
			<path class="st0" d="M595.4,663.7h-2l-1.9-4.3h-8.9l-1.9,4.3h-1.9l7.4-16.5h1.7L595.4,663.7z M587.1,649.4l-3.7,8.3h7.4
				L587.1,649.4z"/>
			<path class="st0" d="M600.9,647.4h1.8V662h9.2v1.7h-11V647.4z"/>
			<path class="st0" d="M617.7,647.4h1.8V662h9.2v1.7h-11V647.4z"/>
			<path class="st0" d="M646.3,649.1h-10v5.6h8.9v1.7h-8.9v5.7h10.1v1.7h-11.9v-16.3h11.8V649.1z"/>
			<path class="st0" d="M663.7,663.7l-4.7-6.3h-4.7v6.3h-1.8v-16.3h7c0.9,0,1.7,0.1,2.4,0.4c0.7,0.2,1.3,0.6,1.9,1
				c0.5,0.4,0.9,0.9,1.2,1.5c0.3,0.6,0.4,1.3,0.4,2c0,0.7-0.1,1.3-0.3,1.8c-0.2,0.5-0.5,1-0.9,1.4c-0.4,0.4-0.9,0.7-1.4,1
				c-0.5,0.3-1.1,0.5-1.8,0.6l5,6.7H663.7z M662.5,649.9c-0.7-0.6-1.8-0.9-3.1-0.9h-5.1v6.7h5c0.6,0,1.2-0.1,1.7-0.2
				c0.5-0.2,1-0.4,1.3-0.7c0.4-0.3,0.7-0.6,0.9-1.1c0.2-0.4,0.3-0.9,0.3-1.4C663.6,651.3,663.2,650.5,662.5,649.9z"/>
			<path class="st0" d="M678.1,663.7h-1.8v-6.5l-6.8-9.9h2.2l5.5,8.2l5.5-8.2h2.1l-6.8,9.8V663.7z"/>
		</g>
	</g>
	<g>
		<g>
			<path class="st1" d="M590.7,337.8v50.6h50.6v-50.6H590.7z M599,380v-24l24.2,24H599z M632.8,370.2l-24.2-24h24.2V370.2z"/>
		</g>
		<g>
			<rect x="481.9" y="468.8" class="st2" width="28.3" height="28.3"/>
			<path class="st0" d="M590.7,388.4v-50.6H465.1c63.6,19.2,117.1,61.8,150.5,117.7h25.7v-67.2H590.7z M575.9,372.9l-32.4-20.5
				c0,0,32.3,0,32.4,0V372.9z M606,403h20.4c0,0,0,32.4,0,32.4L606,403z"/>
			<path class="st0" d="M464.1,356.9v158.1h158.2C595.6,441.6,537.4,383.5,464.1,356.9z M510.2,497.1h-28.3v-28.3h28.3V497.1z"/>
		</g>
	</g>
</g>
</svg>
