<svg id="Layer_1" data-name="Layer 1" xmlns="http://www.w3.org/2000/svg" viewBox="0 0 286.65 287.09"><title>instagarm</title><path d="M147.91,47.55h85.84l5,.46c10.78,1,21.75,1,32.3,3.11C299,56.74,318.42,73,328.24,100c4.75,13.1,5.85,26.8,5.9,40.57.1,32.91.25,65.83-.1,98.73a173.24,173.24,0,0,1-2.82,31.2c-5.37,27.5-21.1,46.95-47.47,57.22-12.73,5-26.14,6.28-39.64,6.41-30.28.31-60.57.59-90.86.43-14.93-.08-29.93-.14-44.61-3.7-23.77-5.77-41.43-19.25-51.93-41.51-6.46-13.7-8.44-28.43-8.6-43.39-.32-31-.67-62.07-.42-93.11a282.24,282.24,0,0,1,2.8-39.09c3-20.09,12.65-36.78,29.09-49.11,14.09-10.57,30.4-14.77,47.65-16C134.11,48.21,141,47.93,147.91,47.55Zm43.25,261.86V309c7.58,0,15.16.23,22.72,0,16.24-.59,32.59-.44,48.68-2.4,21.22-2.59,35.75-14.6,42.17-35.47,2.95-9.57,3.45-19.5,3.56-29.4.3-25.43.66-50.86.43-76.29-.13-15.12-.51-30.32-2.24-45.32-2.65-23.07-17.27-38.72-40-43.24a171.14,171.14,0,0,0-30.36-2.73c-25-.42-50.11-.34-75.16-.26-14.39.05-28.81-.14-43.06,2.37C96.12,80,81.18,93.83,76.73,115.5A161.61,161.61,0,0,0,74,144.16c-.49,23.09-.67,46.19-.41,69.28.17,16.15.64,32.35,2.15,48.42,1.4,14.92,8.23,27.47,20.91,36.2,9.79,6.73,21,9.31,32.59,9.75C149.85,308.59,170.51,308.9,191.16,309.41Z" transform="translate(-47.61 -47.55)"/><path d="M117.27,191.28c-.14-40.63,33.06-73.83,73.8-73.84A73.72,73.72,0,0,1,264.84,191c.27,40.6-32.82,73.87-73.62,74C150.58,265.14,117.41,232.07,117.27,191.28ZM190.92,239a47.81,47.81,0,1,0-47.65-47.89A47.65,47.65,0,0,0,190.92,239Z" transform="translate(-47.61 -47.55)"/><path d="M268.17,97.34a17.18,17.18,0,0,1-.78,34.36,17.18,17.18,0,1,1,.78-34.36Z" transform="translate(-47.61 -47.55)"/></svg>