<svg id="Layer_1" data-name="Layer 1" xmlns="http://www.w3.org/2000/svg" viewBox="0 0 218.68 310.22"><title>location</title><path d="M289.54,110.39A109.31,109.31,0,0,0,152.42,32.84C107.2,46.09,75.08,88.22,74.33,135.3c-.25,15.2,2.59,30.95,8.68,48.16,7.81,22.07,19.57,44.63,36,69S175.48,332,179.38,336.3a5.34,5.34,0,0,0,3.86,2.19h.3a6,6,0,0,0,4.23-2C190.36,334,237.2,269,253,245.15c15.18-23,26-44.91,33.17-67.09C294,153.66,295.08,131.53,289.54,110.39ZM264.12,172c-6.78,20.62-17.42,41.65-32.52,64.27C220.42,253,208.67,269.8,197.31,286q-6.84,9.76-13.65,19.56l-7.49-10.54c-6.77-9.53-13.77-19.39-20.56-29.07-14.08-20.09-30.14-43.67-42.43-69.38-8-16.77-12.83-31.44-15.12-46.15C92.21,113,112.9,74.59,147.23,59.13a89.49,89.49,0,0,1,36.74-8,85.74,85.74,0,0,1,38.25,9c23.3,11.58,40.06,33.16,46,59.19C271.92,135.49,270.62,152.23,264.12,172Z" transform="translate(-74.31 -28.27)"/><path d="M183.93,81.68h-.19a55.92,55.92,0,0,0-.35,111.84h.2a55.89,55.89,0,0,0,39.75-95.28A55.38,55.38,0,0,0,183.93,81.68Zm-.33,89h-.09a33.12,33.12,0,0,1,.15-66.23h0a33.12,33.12,0,0,1-.06,66.23Z" transform="translate(-74.31 -28.27)"/></svg>