<?xml version="1.0" encoding="utf-8"?>
<!-- Generator: Adobe Illustrator 24.0.1, SVG Export Plug-In . SVG Version: 6.00 Build 0)  -->
<svg version="1.1" id="Layer_1" xmlns="http://www.w3.org/2000/svg" xmlns:xlink="http://www.w3.org/1999/xlink" x="0px" y="0px"
	 viewBox="0 0 1080 1000" style="enable-background:new 0 0 1080 1000;" xml:space="preserve">
<style type="text/css">
	.st0{fill:#B1873D;}
	.st1{fill:#D4B888;}
</style>
<g>
	<g>
		<path class="st0" d="M302,270.6V701h430.8C660.1,501.5,501.6,343.1,302,270.6z M427.6,652.4h-77v-77h77V652.4z"/>
	</g>
	<g>
		<path class="st1" d="M646.6,218.7v137.7h137.7V218.7H646.6z M669.4,333.5v-65.5l65.9,65.5H669.4z M761.4,307.1l-65.9-65.5h65.9
			V307.1z"/>
	</g>
	<g>
		<path class="st0" d="M646.6,356.4V218.7h-342C477.8,271.1,623.4,387,714.3,539.3h70V356.4H646.6z M606.5,314.4l-88.1-55.7
			c0,0,88.1,0.1,88.1,0.1V314.4z M688.4,396.4h55.6c0,0,0.1,88.1,0.1,88.1L688.4,396.4z"/>
	</g>
</g>
</svg>
