<?xml version="1.0" encoding="UTF-8" standalone="no" ?>
<!DOCTYPE svg PUBLIC "-//W3C//DTD SVG 1.1//EN" "http://www.w3.org/Graphics/SVG/1.1/DTD/svg11.dtd">
<svg xmlns="http://www.w3.org/2000/svg" xmlns:xlink="http://www.w3.org/1999/xlink" version="1.1" width="1080" height="1080" viewBox="0 0 1080 1080" xml:space="preserve">
<desc>Created with Fabric.js 4.2.0</desc>
<defs>
</defs>
<rect x="0" y="0" width="100%" height="100%" fill="transparent"></rect>
<g transform="matrix(1 0 0 1 540 540)" id="f4a9daec-5346-4df7-9ca2-d6f087822633"  >
<rect style="stroke: none; stroke-width: 1; stroke-dasharray: none; stroke-linecap: butt; stroke-dashoffset: 0; stroke-linejoin: miter; stroke-miterlimit: 4; fill: rgb(125,125,125); fill-rule: nonzero; opacity: 1; visibility: hidden;" vector-effect="non-scaling-stroke"  x="-540" y="-540" rx="0" ry="0" width="1080" height="1080" />
</g>
<g transform="matrix(1 0 0 1 540 540)" id="da886b38-e2ed-4c66-917d-081bcc1e7f90"  >
</g>
<g transform="matrix(3.15 0 0 3.15 540 540)"  >
<g style="" vector-effect="non-scaling-stroke"   >
		<g transform="matrix(1 0 0 1 -125.35 95.85)"  >
<path style="stroke: none; stroke-width: 1; stroke-dasharray: none; stroke-linecap: butt; stroke-dashoffset: 0; stroke-linejoin: miter; stroke-miterlimit: 4; fill: rgb(177,135,61); fill-rule: nonzero; opacity: 1;" vector-effect="non-scaling-stroke"  transform=" translate(-427.3, -596.85)" d="M 421.2 563.9 L 433.4 563.9 L 433.4 629.8 L 421.2 629.8 L 421.2 563.9 z" stroke-linecap="round" />
</g>
		<g transform="matrix(1 0 0 1 -56.85 95.85)"  >
<path style="stroke: none; stroke-width: 1; stroke-dasharray: none; stroke-linecap: butt; stroke-dashoffset: 0; stroke-linejoin: miter; stroke-miterlimit: 4; fill: rgb(177,135,61); fill-rule: nonzero; opacity: 1;" vector-effect="non-scaling-stroke"  transform=" translate(-495.8, -596.85)" d="M 547.1 563.9 L 525.3000000000001 629.8 L 512.3000000000001 629.8 L 496 581 L 479.4 629.8 L 466.29999999999995 629.8 L 444.49999999999994 563.9 L 457.19999999999993 563.9 L 473.5999999999999 614 L 490.5999999999999 563.9 L 501.8999999999999 563.9 L 518.5999999999999 614.3 L 535.4999999999999 563.9 L 547.1 563.9 z" stroke-linecap="round" />
</g>
		<g transform="matrix(1 0 0 1 28.85 95.95)"  >
<path style="stroke: none; stroke-width: 1; stroke-dasharray: none; stroke-linecap: butt; stroke-dashoffset: 0; stroke-linejoin: miter; stroke-miterlimit: 4; fill: rgb(177,135,61); fill-rule: nonzero; opacity: 1;" vector-effect="non-scaling-stroke"  transform=" translate(-581.5, -596.95)" d="M 597.8 614.6 L 564.8 614.6 L 558.3 629.9 L 545.6999999999999 629.9 L 575.4 564 L 587.5 564 L 617.3 629.9 L 604.5 629.9 L 597.8 614.6 z M 593.7 605 L 581.3000000000001 576.2 L 568.9 605 L 593.7 605 z" stroke-linecap="round" />
</g>
		<g transform="matrix(1 0 0 1 102.2 95.85)"  >
<path style="stroke: none; stroke-width: 1; stroke-dasharray: none; stroke-linecap: butt; stroke-dashoffset: 0; stroke-linejoin: miter; stroke-miterlimit: 4; fill: rgb(177,135,61); fill-rule: nonzero; opacity: 1;" vector-effect="non-scaling-stroke"  transform=" translate(-654.85, -596.85)" d="M 684.1 563.9 L 684.1 629.8 L 674 629.8 L 637.7 585.1999999999999 L 637.7 629.8 L 625.6 629.8 L 625.6 563.9 L 635.7 563.9 L 672 608.5 L 672 563.9 L 684.1 563.9 z" stroke-linecap="round" />
</g>
		<g transform="matrix(1 0 0 1 -123.85 154.45)"  >
<path style="stroke: none; stroke-width: 1; stroke-dasharray: none; stroke-linecap: butt; stroke-dashoffset: 0; stroke-linejoin: miter; stroke-miterlimit: 4; fill: rgb(177,135,61); fill-rule: nonzero; opacity: 1;" vector-effect="non-scaling-stroke"  transform=" translate(-428.8, -655.45)" d="M 437.1 663.7 L 435.1 663.7 L 433.20000000000005 659.4000000000001 L 424.30000000000007 659.4000000000001 L 422.4000000000001 663.7 L 420.5000000000001 663.7 L 427.9000000000001 647.2 L 429.6000000000001 647.2 L 437.1 663.7 z M 428.7 649.4 L 425 657.6999999999999 L 432.4 657.6999999999999 L 428.7 649.4 z" stroke-linecap="round" />
</g>
		<g transform="matrix(1 0 0 1 -103.1 154.55)"  >
<path style="stroke: none; stroke-width: 1; stroke-dasharray: none; stroke-linecap: butt; stroke-dashoffset: 0; stroke-linejoin: miter; stroke-miterlimit: 4; fill: rgb(177,135,61); fill-rule: nonzero; opacity: 1;" vector-effect="non-scaling-stroke"  transform=" translate(-449.55, -655.55)" d="M 454.7 647.4 L 456.5 647.4 L 456.5 663.6999999999999 L 455 663.6999999999999 L 444.4 650.3 L 444.4 663.6999999999999 L 442.59999999999997 663.6999999999999 L 442.59999999999997 647.4 L 444.29999999999995 647.4 L 454.59999999999997 660.5 L 454.59999999999997 647.4 z" stroke-linecap="round" />
</g>
		<g transform="matrix(1 0 0 1 -83.95 154.55)"  >
<path style="stroke: none; stroke-width: 1; stroke-dasharray: none; stroke-linecap: butt; stroke-dashoffset: 0; stroke-linejoin: miter; stroke-miterlimit: 4; fill: rgb(177,135,61); fill-rule: nonzero; opacity: 1;" vector-effect="non-scaling-stroke"  transform=" translate(-468.7, -655.55)" d="M 469.6 663.7 L 467.8 663.7 L 467.8 649.1 L 462.3 649.1 L 462.3 647.4 L 475.1 647.4 L 475.1 649.1 L 469.6 649.1 L 469.6 663.7 z" stroke-linecap="round" />
</g>
		<g transform="matrix(1 0 0 1 -70.7 154.55)"  >
<path style="stroke: none; stroke-width: 1; stroke-dasharray: none; stroke-linecap: butt; stroke-dashoffset: 0; stroke-linejoin: miter; stroke-miterlimit: 4; fill: rgb(177,135,61); fill-rule: nonzero; opacity: 1;" vector-effect="non-scaling-stroke"  transform=" translate(-481.95, -655.55)" d="M 482.9 647.4 L 482.9 663.6999999999999 L 481 663.6999999999999 L 481 647.4 L 482.9 647.4 z" stroke-linecap="round" />
</g>
		<g transform="matrix(1 0 0 1 -54.95 154.65)"  >
<path style="stroke: none; stroke-width: 1; stroke-dasharray: none; stroke-linecap: butt; stroke-dashoffset: 0; stroke-linejoin: miter; stroke-miterlimit: 4; fill: rgb(177,135,61); fill-rule: nonzero; opacity: 1;" vector-effect="non-scaling-stroke"  transform=" translate(-497.7, -655.65)" d="M 506.1 662.8 L 504.8 664.1999999999999 L 502.7 662.1999999999999 C 502 662.6999999999999 501.2 663.1999999999999 500.4 663.4999999999999 C 499.5 663.7999999999998 498.59999999999997 663.9999999999999 497.59999999999997 663.9999999999999 C 496.4 663.9999999999999 495.2 663.7999999999998 494.2 663.2999999999998 C 493.2 662.7999999999998 492.3 662.1999999999998 491.59999999999997 661.4999999999999 C 490.9 660.6999999999999 490.29999999999995 659.7999999999998 489.9 658.7999999999998 C 489.5 657.7999999999998 489.29999999999995 656.6999999999998 489.29999999999995 655.5999999999998 C 489.29999999999995 654.4999999999998 489.49999999999994 653.3999999999997 489.9 652.3999999999997 C 490.29999999999995 651.3999999999997 490.9 650.4999999999998 491.59999999999997 649.6999999999997 C 492.29999999999995 648.8999999999997 493.2 648.2999999999997 494.2 647.7999999999997 C 495.2 647.2999999999997 496.4 647.0999999999997 497.59999999999997 647.0999999999997 C 498.79999999999995 647.0999999999997 499.99999999999994 647.2999999999997 500.99999999999994 647.7999999999997 C 501.99999999999994 648.2999999999997 502.8999999999999 648.8999999999997 503.59999999999997 649.5999999999997 C 504.29999999999995 650.3999999999996 504.9 651.2999999999997 505.29999999999995 652.2999999999997 C 505.69999999999993 653.2999999999997 505.9 654.3999999999997 505.9 655.4999999999998 C 505.9 656.4999999999998 505.7 657.4999999999998 505.4 658.4999999999998 C 505.09999999999997 659.3999999999997 504.59999999999997 660.2999999999997 503.9 660.9999999999998 L 506.1 662.8 z M 498.3 658.5 L 499.5 657.1 L 502.5 659.8000000000001 C 503 659.2 503.3 658.6 503.5 657.9000000000001 C 503.7 657.2 503.9 656.4000000000001 503.9 655.6000000000001 C 503.9 654.7000000000002 503.7 653.8000000000002 503.4 653.0000000000001 C 503.09999999999997 652.2 502.59999999999997 651.5000000000001 502.09999999999997 650.9000000000001 C 501.49999999999994 650.3000000000001 500.79999999999995 649.8000000000001 500.09999999999997 649.5000000000001 C 499.29999999999995 649.1000000000001 498.49999999999994 649.0000000000001 497.49999999999994 649.0000000000001 C 496.59999999999997 649.0000000000001 495.69999999999993 649.2000000000002 494.8999999999999 649.5000000000001 C 494.0999999999999 649.9000000000001 493.3999999999999 650.3000000000001 492.8999999999999 650.9000000000001 C 492.2999999999999 651.5000000000001 491.8999999999999 652.2 491.5999999999999 653.0000000000001 C 491.2999999999999 653.8000000000001 491.0999999999999 654.7000000000002 491.0999999999999 655.6000000000001 C 491.0999999999999 656.5000000000001 491.2999999999999 657.4000000000001 491.5999999999999 658.2000000000002 C 491.8999999999999 659.0000000000001 492.3999999999999 659.7000000000002 492.8999999999999 660.3000000000002 C 493.49999999999994 660.9000000000002 494.19999999999993 661.4000000000002 494.8999999999999 661.7000000000002 C 495.69999999999993 662.1000000000001 496.49999999999994 662.2000000000002 497.49999999999994 662.2000000000002 C 498.19999999999993 662.2000000000002 498.8999999999999 662.1000000000001 499.59999999999997 661.9000000000002 C 500.2 661.7000000000002 500.79999999999995 661.4000000000002 501.29999999999995 661.0000000000002 L 498.3 658.5 z" stroke-linecap="round" />
</g>
		<g transform="matrix(1 0 0 1 -33.95 154.75)"  >
<path style="stroke: none; stroke-width: 1; stroke-dasharray: none; stroke-linecap: butt; stroke-dashoffset: 0; stroke-linejoin: miter; stroke-miterlimit: 4; fill: rgb(177,135,61); fill-rule: nonzero; opacity: 1;" vector-effect="non-scaling-stroke"  transform=" translate(-518.7, -655.75)" d="M 525.5 656.7 C 525.5 657.9000000000001 525.3 658.9000000000001 525 659.9000000000001 C 524.7 660.8000000000001 524.2 661.6000000000001 523.6 662.2 C 523 662.8000000000001 522.3000000000001 663.3000000000001 521.5 663.6 C 520.7 663.9 519.7 664.1 518.7 664.1 C 517.7 664.1 516.8000000000001 663.9 515.9000000000001 663.6 C 515.1000000000001 663.3000000000001 514.4000000000001 662.8000000000001 513.8000000000001 662.2 C 513.2 661.6 512.7 660.9000000000001 512.4000000000001 660 C 512.1000000000001 659.1 511.9000000000001 658.1 511.9000000000001 656.9 L 511.9000000000001 647.4 L 513.7 647.4 L 513.7 656.8 C 513.7 658.5999999999999 514.1 659.9 515 660.9 C 515.9 661.8 517.1 662.3 518.7 662.3 C 520.2 662.3 521.4000000000001 661.8 522.3000000000001 660.9 C 523.2 660 523.6 658.6999999999999 523.6 656.9 L 523.6 647.4 L 525.4 647.4 L 525.4 656.7 z" stroke-linecap="round" />
</g>
		<g transform="matrix(1 0 0 1 -14.5 154.65)"  >
<path style="stroke: none; stroke-width: 1; stroke-dasharray: none; stroke-linecap: butt; stroke-dashoffset: 0; stroke-linejoin: miter; stroke-miterlimit: 4; fill: rgb(177,135,61); fill-rule: nonzero; opacity: 1;" vector-effect="non-scaling-stroke"  transform=" translate(-538.15, -655.65)" d="M 544 649.1 L 534 649.1 L 534 654.7 L 542.9 654.7 L 542.9 656.4000000000001 L 534 656.4000000000001 L 534 662.1000000000001 L 544.1 662.1000000000001 L 544.1 663.8000000000002 L 532.2 663.8000000000002 L 532.2 647.5000000000002 L 544 647.5000000000002 L 544 649.1 z" stroke-linecap="round" />
</g>
		<g transform="matrix(1 0 0 1 13.55 154.5)"  >
<path style="stroke: none; stroke-width: 1; stroke-dasharray: none; stroke-linecap: butt; stroke-dashoffset: 0; stroke-linejoin: miter; stroke-miterlimit: 4; fill: rgb(177,135,61); fill-rule: nonzero; opacity: 1;" vector-effect="non-scaling-stroke"  transform=" translate(-566.2, -655.5)" d="M 570.9 663.3 C 569.8 663.8 568.5 664 567.1999999999999 664 C 565.9 664 564.8 663.8 563.6999999999999 663.3 C 562.6999999999999 662.9 561.8 662.3 561.0999999999999 661.5 C 560.3999999999999 660.7 559.8 659.8 559.3999999999999 658.8 C 558.9999999999999 657.8 558.7999999999998 656.6999999999999 558.7999999999998 655.5 C 558.7999999999998 654.4 558.9999999999999 653.3 559.3999999999999 652.3 C 559.7999999999998 651.3 560.3999999999999 650.4 561.0999999999999 649.5999999999999 C 561.8 648.8 562.6999999999999 648.1999999999999 563.6999999999999 647.6999999999999 C 564.6999999999999 647.1999999999999 565.8 646.9999999999999 567.0999999999999 646.9999999999999 C 567.8 646.9999999999999 568.3999999999999 646.9999999999999 568.9999999999999 647.0999999999999 C 569.5999999999999 647.1999999999999 570.0999999999999 647.3 570.5999999999999 647.4999999999999 C 571.0999999999999 647.6999999999999 571.5999999999999 647.8999999999999 571.9999999999999 648.1999999999999 C 572.3999999999999 648.4999999999999 572.7999999999998 648.8 573.1999999999999 649.0999999999999 L 571.9999999999999 650.4999999999999 C 571.6999999999999 650.1999999999999 571.3999999999999 649.9999999999999 570.9999999999999 649.6999999999999 C 570.6999999999999 649.4999999999999 570.2999999999998 649.3 569.8999999999999 649.0999999999999 C 569.4999999999999 648.8999999999999 569.0999999999999 648.8 568.5999999999999 648.6999999999999 C 568.0999999999999 648.5999999999999 567.5999999999999 648.5999999999999 566.9999999999999 648.5999999999999 C 566.0999999999999 648.5999999999999 565.2999999999998 648.8 564.4999999999999 649.0999999999999 C 563.6999999999999 649.4999999999999 563.0999999999999 649.8999999999999 562.4999999999999 650.5999999999999 C 561.9999999999999 651.1999999999999 561.4999999999999 651.8999999999999 561.1999999999999 652.6999999999999 C 560.9 653.4999999999999 560.6999999999999 654.4 560.6999999999999 655.3 C 560.6999999999999 656.3 560.9 657.1999999999999 561.1999999999999 658 C 561.4999999999999 658.8 561.9 659.6 562.4999999999999 660.2 C 563.0999999999999 660.8000000000001 563.6999999999999 661.3000000000001 564.4999999999999 661.6 C 565.2999999999998 661.9 566.1999999999999 662.1 567.1999999999999 662.1 C 568.0999999999999 662.1 568.9999999999999 661.9 569.8 661.6 C 570.5999999999999 661.3000000000001 571.3 660.9 571.9 660.4 L 571.9 656.3 L 566.9 656.3 L 566.9 655 L 573.6 655 L 573.6 661.5 C 572.9 662.2 572 662.8 570.9 663.3 z" stroke-linecap="round" />
</g>
		<g transform="matrix(1 0 0 1 34.45 154.45)"  >
<path style="stroke: none; stroke-width: 1; stroke-dasharray: none; stroke-linecap: butt; stroke-dashoffset: 0; stroke-linejoin: miter; stroke-miterlimit: 4; fill: rgb(177,135,61); fill-rule: nonzero; opacity: 1;" vector-effect="non-scaling-stroke"  transform=" translate(-587.1, -655.45)" d="M 595.4 663.7 L 593.4 663.7 L 591.5 659.4000000000001 L 582.6 659.4000000000001 L 580.7 663.7 L 578.8000000000001 663.7 L 586.2 647.2 L 587.9000000000001 647.2 L 595.4 663.7 z M 587.1 649.4 L 583.4 657.6999999999999 L 590.8 657.6999999999999 L 587.1 649.4 z" stroke-linecap="round" />
</g>
		<g transform="matrix(1 0 0 1 53.75 154.55)"  >
<path style="stroke: none; stroke-width: 1; stroke-dasharray: none; stroke-linecap: butt; stroke-dashoffset: 0; stroke-linejoin: miter; stroke-miterlimit: 4; fill: rgb(177,135,61); fill-rule: nonzero; opacity: 1;" vector-effect="non-scaling-stroke"  transform=" translate(-606.4, -655.55)" d="M 600.9 647.4 L 602.6999999999999 647.4 L 602.6999999999999 662 L 611.9 662 L 611.9 663.7 L 600.9 663.7 L 600.9 647.4 z" stroke-linecap="round" />
</g>
		<g transform="matrix(1 0 0 1 70.55 154.55)"  >
<path style="stroke: none; stroke-width: 1; stroke-dasharray: none; stroke-linecap: butt; stroke-dashoffset: 0; stroke-linejoin: miter; stroke-miterlimit: 4; fill: rgb(177,135,61); fill-rule: nonzero; opacity: 1;" vector-effect="non-scaling-stroke"  transform=" translate(-623.2, -655.55)" d="M 617.7 647.4 L 619.5 647.4 L 619.5 662 L 628.7 662 L 628.7 663.7 L 617.7 663.7 L 617.7 647.4 z" stroke-linecap="round" />
</g>
		<g transform="matrix(1 0 0 1 87.8 154.65)"  >
<path style="stroke: none; stroke-width: 1; stroke-dasharray: none; stroke-linecap: butt; stroke-dashoffset: 0; stroke-linejoin: miter; stroke-miterlimit: 4; fill: rgb(177,135,61); fill-rule: nonzero; opacity: 1;" vector-effect="non-scaling-stroke"  transform=" translate(-640.45, -655.65)" d="M 646.3 649.1 L 636.3 649.1 L 636.3 654.7 L 645.1999999999999 654.7 L 645.1999999999999 656.4000000000001 L 636.3 656.4000000000001 L 636.3 662.1000000000001 L 646.4 662.1000000000001 L 646.4 663.8000000000002 L 634.5 663.8000000000002 L 634.5 647.5000000000002 L 646.3 647.5000000000002 L 646.3 649.1 z" stroke-linecap="round" />
</g>
		<g transform="matrix(1 0 0 1 106.6 154.6)"  >
<path style="stroke: none; stroke-width: 1; stroke-dasharray: none; stroke-linecap: butt; stroke-dashoffset: 0; stroke-linejoin: miter; stroke-miterlimit: 4; fill: rgb(177,135,61); fill-rule: nonzero; opacity: 1;" vector-effect="non-scaling-stroke"  transform=" translate(-659.25, -655.6)" d="M 663.7 663.7 L 659 657.4000000000001 L 654.3 657.4000000000001 L 654.3 663.7 L 652.5 663.7 L 652.5 647.4000000000001 L 659.5 647.4000000000001 C 660.4 647.4000000000001 661.2 647.5000000000001 661.9 647.8000000000001 C 662.6 648.0000000000001 663.1999999999999 648.4000000000001 663.8 648.8000000000001 C 664.3 649.2 664.6999999999999 649.7 665 650.3000000000001 C 665.3 650.9000000000001 665.4 651.6 665.4 652.3000000000001 C 665.4 653.0000000000001 665.3 653.6 665.1 654.1 C 664.9 654.6 664.6 655.1 664.2 655.5 C 663.8000000000001 655.9 663.3000000000001 656.2 662.8000000000001 656.5 C 662.3000000000001 656.8 661.7 657 661.0000000000001 657.1 L 666.0000000000001 663.8000000000001 L 663.7 663.8000000000001 z M 662.5 649.9 C 661.8 649.3 660.7 649 659.4 649 L 654.3 649 L 654.3 655.7 L 659.3 655.7 C 659.9 655.7 660.5 655.6 661 655.5 C 661.5 655.3 662 655.1 662.3 654.8 C 662.6999999999999 654.5 663 654.1999999999999 663.1999999999999 653.6999999999999 C 663.4 653.3 663.4999999999999 652.8 663.4999999999999 652.3 C 663.6 651.3 663.2 650.5 662.5 649.9 z" stroke-linecap="round" />
</g>
		<g transform="matrix(1 0 0 1 124.5 154.5)"  >
<path style="stroke: none; stroke-width: 1; stroke-dasharray: none; stroke-linecap: butt; stroke-dashoffset: 0; stroke-linejoin: miter; stroke-miterlimit: 4; fill: rgb(177,135,61); fill-rule: nonzero; opacity: 1;" vector-effect="non-scaling-stroke"  transform=" translate(-677.15, -655.5)" d="M 678.1 663.7 L 676.3000000000001 663.7 L 676.3000000000001 657.2 L 669.5000000000001 647.3000000000001 L 671.7000000000002 647.3000000000001 L 677.2000000000002 655.5000000000001 L 682.7000000000002 647.3000000000001 L 684.8000000000002 647.3000000000001 L 678.0000000000002 657.1 L 678.0000000000002 663.7 z" stroke-linecap="round" />
</g>
		<g transform="matrix(1 0 0 1 63.35 -137.9)"  >
<path style="stroke: none; stroke-width: 1; stroke-dasharray: none; stroke-linecap: butt; stroke-dashoffset: 0; stroke-linejoin: miter; stroke-miterlimit: 4; fill: rgb(212,184,136); fill-rule: nonzero; opacity: 1;" vector-effect="non-scaling-stroke"  transform=" translate(-616, -363.1)" d="M 590.7 337.8 L 590.7 388.40000000000003 L 641.3000000000001 388.40000000000003 L 641.3000000000001 337.8 L 590.7 337.8 z M 599 380 L 599 356 L 623.2 380 L 599 380 z M 632.8 370.2 L 608.5999999999999 346.2 L 632.8 346.2 L 632.8 370.2 z" stroke-linecap="round" />
</g>
		<g transform="matrix(1 0 0 1 -56.6 -18.05)"  >
<rect style="stroke: none; stroke-width: 1; stroke-dasharray: none; stroke-linecap: butt; stroke-dashoffset: 0; stroke-linejoin: miter; stroke-miterlimit: 4; fill: none; fill-rule: nonzero; opacity: 1;" vector-effect="non-scaling-stroke"  x="-14.15" y="-14.15" rx="0" ry="0" width="28.3" height="28.3" />
</g>
		<g transform="matrix(1 0 0 1 0.55 -104.35)"  >
<path style="stroke: none; stroke-width: 1; stroke-dasharray: none; stroke-linecap: butt; stroke-dashoffset: 0; stroke-linejoin: miter; stroke-miterlimit: 4; fill: rgb(177,135,61); fill-rule: nonzero; opacity: 1;" vector-effect="non-scaling-stroke"  transform=" translate(-553.2, -396.65)" d="M 590.7 388.4 L 590.7 337.79999999999995 L 465.1 337.79999999999995 C 528.7 356.99999999999994 582.2 399.59999999999997 615.6 455.49999999999994 L 641.3000000000001 455.49999999999994 L 641.3000000000001 388.29999999999995 L 590.7 388.29999999999995 z M 575.9 372.9 L 543.5 352.4 C 543.5 352.4 575.8 352.4 575.9 352.4 L 575.9 372.9 z M 606 403 L 626.4 403 C 626.4 403 626.4 435.4 626.4 435.4 L 606 403 z" stroke-linecap="round" />
</g>
		<g transform="matrix(1 0 0 1 -9.45 -65.05)"  >
<path style="stroke: none; stroke-width: 1; stroke-dasharray: none; stroke-linecap: butt; stroke-dashoffset: 0; stroke-linejoin: miter; stroke-miterlimit: 4; fill: rgb(177,135,61); fill-rule: nonzero; opacity: 1;" vector-effect="non-scaling-stroke"  transform=" translate(-543.2, -435.95)" d="M 464.1 356.9 L 464.1 515 L 622.3 515 C 595.6 441.6 537.4 383.5 464.1 356.9 z M 510.2 497.1 L 481.9 497.1 L 481.9 468.8 L 510.2 468.8 L 510.2 497.1 z" stroke-linecap="round" />
</g>
</g>
</g>
</svg>