<?xml version="1.0" encoding="UTF-8" standalone="no" ?>
<!DOCTYPE svg PUBLIC "-//W3C//DTD SVG 1.1//EN" "http://www.w3.org/Graphics/SVG/1.1/DTD/svg11.dtd">
<svg xmlns="http://www.w3.org/2000/svg" xmlns:xlink="http://www.w3.org/1999/xlink" version="1.1" width="2904" height="528" viewBox="39.43 39.71 2904 528" xml:space="preserve">
<desc>Created with Fabric.js 4.2.0</desc>
<defs>
</defs>
<rect x="0" y="0" width="100%" height="100%" fill="transparent"></rect>
<g transform="matrix(Infinity NaN NaN Infinity 0 0)" id="da886b38-e2ed-4c66-917d-081bcc1e7f90"  >
</g>
<g transform="matrix(1 0 0 1 1452 264)" id="f4a9daec-5346-4df7-9ca2-d6f087822633"  >
<rect style="stroke: none; stroke-width: 1; stroke-dasharray: none; stroke-linecap: butt; stroke-dashoffset: 0; stroke-linejoin: miter; stroke-miterlimit: 4; fill: rgb(125,125,125); fill-rule: nonzero; opacity: 1; visibility: hidden;" vector-effect="non-scaling-stroke"  x="-1452" y="-264" rx="0" ry="0" width="2904" height="528" />
</g>
<g transform="matrix(2.91 0 0 2.91 1494.1 304.43)"  >
<g style="" vector-effect="non-scaling-stroke"   >
		<g transform="matrix(1 0 0 1 -142.3 0.35)"  >
<path style="stroke: none; stroke-width: 1; stroke-dasharray: none; stroke-linecap: butt; stroke-dashoffset: 0; stroke-linejoin: miter; stroke-miterlimit: 4; fill: rgb(177,135,61); fill-rule: nonzero; opacity: 1;" vector-effect="non-scaling-stroke"  transform=" translate(-450, -480.35)" d="M 438.3 417.4 L 461.7 417.4 L 461.7 543.3 L 438.3 543.3 L 438.3 417.4 z" stroke-linecap="round" />
</g>
		<g transform="matrix(1 0 0 1 -11.5 0.35)"  >
<path style="stroke: none; stroke-width: 1; stroke-dasharray: none; stroke-linecap: butt; stroke-dashoffset: 0; stroke-linejoin: miter; stroke-miterlimit: 4; fill: rgb(177,135,61); fill-rule: nonzero; opacity: 1;" vector-effect="non-scaling-stroke"  transform=" translate(-580.8, -480.35)" d="M 678.8 417.4 L 637.0999999999999 543.3 L 612.3 543.3 L 581.1999999999999 450.09999999999997 L 549.4999999999999 543.3 L 524.4999999999999 543.3 L 482.7999999999999 417.4 L 507 417.4 L 538.3 513.1 L 570.9 417.40000000000003 L 592.5 417.40000000000003 L 624.3 513.6 L 656.5 417.40000000000003 L 678.8 417.40000000000003 z" stroke-linecap="round" />
</g>
		<g transform="matrix(1 0 0 1 152.05 0.25)"  >
<path style="stroke: none; stroke-width: 1; stroke-dasharray: none; stroke-linecap: butt; stroke-dashoffset: 0; stroke-linejoin: miter; stroke-miterlimit: 4; fill: rgb(177,135,61); fill-rule: nonzero; opacity: 1;" vector-effect="non-scaling-stroke"  transform=" translate(-744.35, -480.25)" d="M 775.6 514.1 L 712.6 514.1 L 700.2 543.2 L 676.1 543.2 L 732.8000000000001 417.30000000000007 L 755.8000000000001 417.30000000000007 L 812.6 543.2 L 788.1 543.2 L 775.6 514.1 z M 767.9 495.8 L 744.1999999999999 440.8 L 720.5999999999999 495.8 L 767.9 495.8 z" stroke-linecap="round" />
</g>
		<g transform="matrix(1 0 0 1 292.35 0.35)"  >
<path style="stroke: none; stroke-width: 1; stroke-dasharray: none; stroke-linecap: butt; stroke-dashoffset: 0; stroke-linejoin: miter; stroke-miterlimit: 4; fill: rgb(177,135,61); fill-rule: nonzero; opacity: 1;" vector-effect="non-scaling-stroke"  transform=" translate(-884.65, -480.35)" d="M 940.6 417.4 L 940.6 543.3 L 921.4 543.3 L 851.9 458 L 851.9 543.3 L 828.6999999999999 543.3 L 828.6999999999999 417.4 L 847.9 417.4 L 917.3 502.7 L 917.3 417.4 L 940.6 417.4 z" stroke-linecap="round" />
</g>
		<g transform="matrix(1 0 0 1 -291.8 6.85)"  >
<path style="stroke: none; stroke-width: 1; stroke-dasharray: none; stroke-linecap: butt; stroke-dashoffset: 0; stroke-linejoin: miter; stroke-miterlimit: 4; fill: rgb(177,135,61); fill-rule: nonzero; opacity: 1;" vector-effect="non-scaling-stroke"  transform=" translate(-300.5, -486.85)" d="M 244 430.4 L 244 543.3 L 357 543.3 C 338 490.9 296.4 449.4 244 430.4 z M 277 530.5 L 256.8 530.5 L 256.8 510.3 L 277 510.3 L 277 530.5 z" stroke-linecap="round" />
</g>
		<g transform="matrix(1 0 0 1 -239.85 -45.25)"  >
<path style="stroke: none; stroke-width: 1; stroke-dasharray: none; stroke-linecap: butt; stroke-dashoffset: 0; stroke-linejoin: miter; stroke-miterlimit: 4; fill: rgb(212,184,136); fill-rule: nonzero; opacity: 1;" vector-effect="non-scaling-stroke"  transform=" translate(-352.45, -434.75)" d="M 334.4 416.7 L 334.4 452.8 L 370.5 452.8 L 370.5 416.7 L 334.4 416.7 z M 340.4 446.9 L 340.4 429.7 L 357.7 446.9 L 340.4 446.9 z M 364.5 439.9 L 347.2 422.7 L 364.5 422.7 L 364.5 439.9 z" stroke-linecap="round" />
</g>
		<g transform="matrix(1 0 0 1 -284.65 -21.15)"  >
<path style="stroke: none; stroke-width: 1; stroke-dasharray: none; stroke-linecap: butt; stroke-dashoffset: 0; stroke-linejoin: miter; stroke-miterlimit: 4; fill: rgb(177,135,61); fill-rule: nonzero; opacity: 1;" vector-effect="non-scaling-stroke"  transform=" translate(-307.65, -458.85)" d="M 334.4 452.9 L 334.4 416.79999999999995 L 244.7 416.79999999999995 C 290.09999999999997 430.49999999999994 328.29999999999995 460.9 352.2 500.9 L 370.59999999999997 500.9 L 370.59999999999997 452.9 L 334.4 452.9 z M 323.9 441.8 L 300.79999999999995 427.2 C 300.79999999999995 427.2 323.9 427.2 323.9 427.2 L 323.9 441.8 z M 345.4 463.4 L 360 463.4 C 360 463.4 360 486.5 360 486.5 L 345.4 463.4 z" stroke-linecap="round" />
</g>
</g>
</g>
</svg>