<?xml version="1.0" encoding="UTF-8" standalone="no" ?>
<!DOCTYPE svg PUBLIC "-//W3C//DTD SVG 1.1//EN" "http://www.w3.org/Graphics/SVG/1.1/DTD/svg11.dtd">
<svg xmlns="http://www.w3.org/2000/svg" xmlns:xlink="http://www.w3.org/1999/xlink" version="1.1" width="3180" height="806" viewBox="0 0 3180 806" xml:space="preserve">
<desc>Created with Fabric.js 4.2.0</desc>
<defs>
</defs>
<rect x="0" y="0" width="100%" height="100%" fill="transparent"></rect>
<g transform="matrix(0 0 0 0 0 0)" id="da886b38-e2ed-4c66-917d-081bcc1e7f90"  >
</g>
<g transform="matrix(1 0 0 1 1590 403)" id="f4a9daec-5346-4df7-9ca2-d6f087822633"  >
<rect style="stroke: none; stroke-width: 1; stroke-dasharray: none; stroke-linecap: butt; stroke-dashoffset: 0; stroke-linejoin: miter; stroke-miterlimit: 4; fill: rgb(125,125,125); fill-rule: nonzero; opacity: 1; visibility: hidden;" vector-effect="non-scaling-stroke"  x="-1590" y="-403" rx="0" ry="0" width="3180" height="806" />
</g>
<g transform="matrix(4.11 0 0 4.11 1582.53 401.1)"  >
<g style="" vector-effect="non-scaling-stroke"   >
		<g transform="matrix(1 0 0 1 -110.4 -31.95)"  >
<path style="stroke: none; stroke-width: 1; stroke-dasharray: none; stroke-linecap: butt; stroke-dashoffset: 0; stroke-linejoin: miter; stroke-miterlimit: 4; fill: rgb(177,135,61); fill-rule: nonzero; opacity: 1;" vector-effect="non-scaling-stroke"  transform=" translate(-450, -480.35)" d="M 438.3 417.4 L 461.7 417.4 L 461.7 543.3 L 438.3 543.3 L 438.3 417.4 z" stroke-linecap="round" />
</g>
		<g transform="matrix(1 0 0 1 20.4 -31.95)"  >
<path style="stroke: none; stroke-width: 1; stroke-dasharray: none; stroke-linecap: butt; stroke-dashoffset: 0; stroke-linejoin: miter; stroke-miterlimit: 4; fill: rgb(177,135,61); fill-rule: nonzero; opacity: 1;" vector-effect="non-scaling-stroke"  transform=" translate(-580.8, -480.35)" d="M 678.8 417.4 L 637.0999999999999 543.3 L 612.3 543.3 L 581.1999999999999 450.09999999999997 L 549.4999999999999 543.3 L 524.4999999999999 543.3 L 482.7999999999999 417.4 L 507 417.4 L 538.3 513.1 L 570.9 417.40000000000003 L 592.5 417.40000000000003 L 624.3 513.6 L 656.5 417.40000000000003 L 678.8 417.40000000000003 z" stroke-linecap="round" />
</g>
		<g transform="matrix(1 0 0 1 183.95 -32.05)"  >
<path style="stroke: none; stroke-width: 1; stroke-dasharray: none; stroke-linecap: butt; stroke-dashoffset: 0; stroke-linejoin: miter; stroke-miterlimit: 4; fill: rgb(177,135,61); fill-rule: nonzero; opacity: 1;" vector-effect="non-scaling-stroke"  transform=" translate(-744.35, -480.25)" d="M 775.6 514.1 L 712.6 514.1 L 700.2 543.2 L 676.1 543.2 L 732.8000000000001 417.30000000000007 L 755.8000000000001 417.30000000000007 L 812.6 543.2 L 788.1 543.2 L 775.6 514.1 z M 767.9 495.8 L 744.1999999999999 440.8 L 720.5999999999999 495.8 L 767.9 495.8 z" stroke-linecap="round" />
</g>
		<g transform="matrix(1 0 0 1 324.25 -31.95)"  >
<path style="stroke: none; stroke-width: 1; stroke-dasharray: none; stroke-linecap: butt; stroke-dashoffset: 0; stroke-linejoin: miter; stroke-miterlimit: 4; fill: rgb(177,135,61); fill-rule: nonzero; opacity: 1;" vector-effect="non-scaling-stroke"  transform=" translate(-884.65, -480.35)" d="M 940.6 417.4 L 940.6 543.3 L 921.4 543.3 L 851.9 458 L 851.9 543.3 L 828.6999999999999 543.3 L 828.6999999999999 417.4 L 847.9 417.4 L 917.3 502.7 L 917.3 417.4 L 940.6 417.4 z" stroke-linecap="round" />
</g>
		<g transform="matrix(1 0 0 1 -107.6 80)"  >
<path style="stroke: none; stroke-width: 1; stroke-dasharray: none; stroke-linecap: butt; stroke-dashoffset: 0; stroke-linejoin: miter; stroke-miterlimit: 4; fill: rgb(177,135,61); fill-rule: nonzero; opacity: 1;" vector-effect="non-scaling-stroke"  transform=" translate(-452.8, -592.3)" d="M 468.7 608 L 464.9 608 L 461.2 599.8 L 444.2 599.8 L 440.5 608 L 436.9 608 L 451.09999999999997 576.6 L 454.4 576.6 L 468.7 608 z M 452.7 580.7 L 445.59999999999997 596.6 L 459.79999999999995 596.6 L 452.7 580.7 z" stroke-linecap="round" />
</g>
		<g transform="matrix(1 0 0 1 -68 80.1)"  >
<path style="stroke: none; stroke-width: 1; stroke-dasharray: none; stroke-linecap: butt; stroke-dashoffset: 0; stroke-linejoin: miter; stroke-miterlimit: 4; fill: rgb(177,135,61); fill-rule: nonzero; opacity: 1;" vector-effect="non-scaling-stroke"  transform=" translate(-492.4, -592.4)" d="M 502.2 576.8 L 505.59999999999997 576.8 L 505.59999999999997 608 L 502.79999999999995 608 L 482.59999999999997 582.4 L 482.59999999999997 608 L 479.2 608 L 479.2 576.8 L 482.5 576.8 L 502.2 601.8 L 502.2 576.8 z" stroke-linecap="round" />
</g>
		<g transform="matrix(1 0 0 1 -31.45 80.05)"  >
<path style="stroke: none; stroke-width: 1; stroke-dasharray: none; stroke-linecap: butt; stroke-dashoffset: 0; stroke-linejoin: miter; stroke-miterlimit: 4; fill: rgb(177,135,61); fill-rule: nonzero; opacity: 1;" vector-effect="non-scaling-stroke"  transform=" translate(-528.95, -592.35)" d="M 530.7 608 L 527.2 608 L 527.2 580 L 516.7 580 L 516.7 576.7 L 541.2 576.7 L 541.2 580 L 530.7 580 L 530.7 608 z" stroke-linecap="round" />
</g>
		<g transform="matrix(1 0 0 1 -6.05 80.1)"  >
<path style="stroke: none; stroke-width: 1; stroke-dasharray: none; stroke-linecap: butt; stroke-dashoffset: 0; stroke-linejoin: miter; stroke-miterlimit: 4; fill: rgb(177,135,61); fill-rule: nonzero; opacity: 1;" vector-effect="non-scaling-stroke"  transform=" translate(-554.35, -592.4)" d="M 556.1 576.8 L 556.1 608 L 552.6 608 L 552.6 576.8 L 556.1 576.8 z" stroke-linecap="round" />
</g>
		<g transform="matrix(1 0 0 1 24.1 80.35)"  >
<path style="stroke: none; stroke-width: 1; stroke-dasharray: none; stroke-linecap: butt; stroke-dashoffset: 0; stroke-linejoin: miter; stroke-miterlimit: 4; fill: rgb(177,135,61); fill-rule: nonzero; opacity: 1;" vector-effect="non-scaling-stroke"  transform=" translate(-584.5, -592.65)" d="M 600.6 606.3 L 598.2 608.9 L 594.1 605.1999999999999 C 592.8000000000001 606.1999999999999 591.3000000000001 607.0999999999999 589.6 607.6999999999999 C 588 608.3 586.2 608.5999999999999 584.2 608.5999999999999 C 581.8000000000001 608.5999999999999 579.7 608.1999999999999 577.7 607.3 C 575.8000000000001 606.4 574.1 605.3 572.7 603.8 C 571.3000000000001 602.3 570.2 600.5999999999999 569.5 598.6999999999999 C 568.7 596.8 568.4 594.6999999999999 568.4 592.4999999999999 C 568.4 590.2999999999998 568.8 588.2999999999998 569.6 586.2999999999998 C 570.4 584.3999999999999 571.5 582.5999999999998 572.9 581.1999999999998 C 574.3 579.6999999999998 576 578.4999999999998 577.9 577.6999999999998 C 579.9 576.7999999999998 582 576.3999999999999 584.4 576.3999999999999 C 586.8 576.3999999999999 588.9 576.7999999999998 590.9 577.6999999999998 C 592.8 578.5999999999998 594.5 579.6999999999998 595.9 581.1999999999998 C 597.3 582.6999999999998 598.4 584.3999999999999 599.1 586.2999999999998 C 599.9 588.1999999999998 600.2 590.2999999999998 600.2 592.4999999999999 C 600.2 594.4999999999999 599.9000000000001 596.2999999999998 599.2 598.1999999999999 C 598.6 599.9999999999999 597.6 601.5999999999999 596.4000000000001 603.0999999999999 L 600.6 606.3 z M 585.7 598 L 588.1 595.4 L 593.9 600.6 C 594.8 599.5 595.4 598.3000000000001 595.9 596.9 C 596.4 595.5 596.6 594.1 596.6 592.5 C 596.6 590.7 596.3000000000001 589 595.7 587.5 C 595.1 585.9 594.2 584.6 593.1 583.4 C 592 582.1999999999999 590.7 581.3 589.2 580.6 C 587.7 579.9 586.1 579.6 584.3000000000001 579.6 C 582.5000000000001 579.6 580.9000000000001 579.9 579.4000000000001 580.6 C 577.9000000000001 581.3000000000001 576.6000000000001 582.2 575.5000000000001 583.3000000000001 C 574.4000000000001 584.5000000000001 573.6000000000001 585.8000000000001 573.0000000000001 587.4000000000001 C 572.4000000000001 589.0000000000001 572.1000000000001 590.6000000000001 572.1000000000001 592.4000000000001 C 572.1000000000001 594.2 572.4000000000001 595.9000000000001 573.0000000000001 597.4000000000001 C 573.6000000000001 599.0000000000001 574.5000000000001 600.3000000000001 575.6000000000001 601.5000000000001 C 576.7000000000002 602.7000000000002 578.0000000000001 603.6000000000001 579.5000000000001 604.3000000000001 C 581.0000000000001 605.0000000000001 582.6000000000001 605.3000000000001 584.4000000000001 605.3000000000001 C 585.8000000000001 605.3000000000001 587.1000000000001 605.1 588.3000000000001 604.7 C 589.5000000000001 604.3000000000001 590.6 603.7 591.6 603 L 585.7 598 z" stroke-linecap="round" />
</g>
		<g transform="matrix(1 0 0 1 64.2 80.35)"  >
<path style="stroke: none; stroke-width: 1; stroke-dasharray: none; stroke-linecap: butt; stroke-dashoffset: 0; stroke-linejoin: miter; stroke-miterlimit: 4; fill: rgb(177,135,61); fill-rule: nonzero; opacity: 1;" vector-effect="non-scaling-stroke"  transform=" translate(-624.6, -592.65)" d="M 637.6 594.7 C 637.6 597 637.3000000000001 599 636.7 600.7 C 636.1 602.4000000000001 635.2 603.9000000000001 634 605 C 632.9 606.2 631.5 607 629.9 607.6 C 628.3 608.2 626.5 608.5 624.6 608.5 C 622.7 608.5 620.9 608.2 619.3000000000001 607.6 C 617.7 607 616.3000000000001 606.2 615.2 605 C 614.1 603.9 613.2 602.4 612.5 600.7 C 611.9 599 611.6 597.1 611.6 594.9000000000001 L 611.6 576.8000000000001 L 615.1 576.8000000000001 L 615.1 594.7 C 615.1 598.1 615.9 600.7 617.6 602.5 C 619.3000000000001 604.3 621.6 605.2 624.6 605.2 C 627.5 605.2 629.8000000000001 604.3000000000001 631.5 602.6 C 633.2 600.9 634 598.3000000000001 634 594.9 L 634 576.8 L 637.5 576.8 L 637.5 594.7 z" stroke-linecap="round" />
</g>
		<g transform="matrix(1 0 0 1 101.5 80.1)"  >
<path style="stroke: none; stroke-width: 1; stroke-dasharray: none; stroke-linecap: butt; stroke-dashoffset: 0; stroke-linejoin: miter; stroke-miterlimit: 4; fill: rgb(177,135,61); fill-rule: nonzero; opacity: 1;" vector-effect="non-scaling-stroke"  transform=" translate(-661.9, -592.4)" d="M 673 580 L 654 580 L 654 590.7 L 671 590.7 L 671 593.9000000000001 L 654 593.9000000000001 L 654 604.8000000000001 L 673.3 604.8000000000001 L 673.3 608.0000000000001 L 650.5 608.0000000000001 L 650.5 576.8000000000001 L 673 576.8000000000001 L 673 580 z" stroke-linecap="round" />
</g>
		<g transform="matrix(1 0 0 1 154.85 80.2)"  >
<path style="stroke: none; stroke-width: 1; stroke-dasharray: none; stroke-linecap: butt; stroke-dashoffset: 0; stroke-linejoin: miter; stroke-miterlimit: 4; fill: rgb(177,135,61); fill-rule: nonzero; opacity: 1;" vector-effect="non-scaling-stroke"  transform=" translate(-715.25, -592.5)" d="M 724.2 607.2 C 722.1 608.1 719.7 608.6 717 608.6 C 714.5 608.6 712.3 608.2 710.4 607.4 C 708.5 606.6 706.8 605.4 705.4 604 C 704 602.5 703 600.8 702.1999999999999 598.9 C 701.4999999999999 596.9 701.0999999999999 594.8 701.0999999999999 592.6 C 701.0999999999999 590.5 701.4999999999999 588.4 702.1999999999999 586.4 C 702.9999999999999 584.4 703.9999999999999 582.6999999999999 705.4 581.1999999999999 C 706.8 579.6999999999999 708.4 578.4999999999999 710.3 577.6999999999999 C 712.1999999999999 576.8 714.4 576.4 716.6999999999999 576.4 C 717.9999999999999 576.4 719.1999999999999 576.5 720.3 576.6999999999999 C 721.4 576.9 722.4 577.0999999999999 723.3 577.4999999999999 C 724.1999999999999 577.8999999999999 725.0999999999999 578.2999999999998 725.9 578.7999999999998 C 726.6999999999999 579.2999999999998 727.5 579.8999999999999 728.3 580.5999999999998 L 726 583.2999999999998 C 725.4 582.7999999999998 724.8 582.2999999999998 724.1 581.8999999999999 C 723.4000000000001 581.4999999999999 722.7 581.0999999999999 722 580.7999999999998 C 721.2 580.4999999999999 720.4 580.1999999999998 719.5 580.0999999999998 C 718.6 579.8999999999997 717.6 579.7999999999998 716.5 579.7999999999998 C 714.8 579.7999999999998 713.2 580.0999999999998 711.7 580.7999999999998 C 710.2 581.4999999999999 709 582.3999999999999 708 583.5999999999998 C 707 584.7999999999998 706.1 586.0999999999998 705.5 587.6999999999998 C 704.9 589.2999999999998 704.6 590.8999999999999 704.6 592.6999999999998 C 704.6 594.5999999999998 704.9 596.2999999999998 705.5 597.8999999999999 C 706.1 599.4999999999999 706.9 600.8999999999999 708 601.9999999999999 C 709.1 603.1999999999999 710.4 604.0999999999999 711.9 604.6999999999999 C 713.4 605.4 715.1 605.6999999999999 717 605.6999999999999 C 718.8 605.6999999999999 720.5 605.4 722 604.8 C 723.6 604.1999999999999 724.9 603.4 726 602.5999999999999 L 726 594.8 L 716.5 594.8 L 716.5 591.6999999999999 L 729.4 591.6999999999999 L 729.4 604.0999999999999 C 728.1 605.1 726.4 606.2 724.2 607.2 z" stroke-linecap="round" />
</g>
		<g transform="matrix(1 0 0 1 194.8 80)"  >
<path style="stroke: none; stroke-width: 1; stroke-dasharray: none; stroke-linecap: butt; stroke-dashoffset: 0; stroke-linejoin: miter; stroke-miterlimit: 4; fill: rgb(177,135,61); fill-rule: nonzero; opacity: 1;" vector-effect="non-scaling-stroke"  transform=" translate(-755.2, -592.3)" d="M 771.1 608 L 767.3000000000001 608 L 763.6 599.8 L 746.6 599.8 L 742.9 608 L 739.3 608 L 753.5 576.6 L 756.8 576.6 L 771.1 608 z M 755.2 580.7 L 748.1 596.6 L 762.3000000000001 596.6 L 755.2 580.7 z" stroke-linecap="round" />
</g>
		<g transform="matrix(1 0 0 1 231.85 80.15)"  >
<path style="stroke: none; stroke-width: 1; stroke-dasharray: none; stroke-linecap: butt; stroke-dashoffset: 0; stroke-linejoin: miter; stroke-miterlimit: 4; fill: rgb(177,135,61); fill-rule: nonzero; opacity: 1;" vector-effect="non-scaling-stroke"  transform=" translate(-792.25, -592.45)" d="M 781.7 576.8 L 785.2 576.8 L 785.2 604.8 L 802.8000000000001 604.8 L 802.8000000000001 608.0999999999999 L 781.7 608.0999999999999 L 781.7 576.8 z" stroke-linecap="round" />
</g>
		<g transform="matrix(1 0 0 1 263.95 80.15)"  >
<path style="stroke: none; stroke-width: 1; stroke-dasharray: none; stroke-linecap: butt; stroke-dashoffset: 0; stroke-linejoin: miter; stroke-miterlimit: 4; fill: rgb(177,135,61); fill-rule: nonzero; opacity: 1;" vector-effect="non-scaling-stroke"  transform=" translate(-824.35, -592.45)" d="M 813.8 576.8 L 817.3 576.8 L 817.3 604.8 L 834.9 604.8 L 834.9 608.0999999999999 L 813.8 608.0999999999999 L 813.8 576.8 z" stroke-linecap="round" />
</g>
		<g transform="matrix(1 0 0 1 296.9 80.1)"  >
<path style="stroke: none; stroke-width: 1; stroke-dasharray: none; stroke-linecap: butt; stroke-dashoffset: 0; stroke-linejoin: miter; stroke-miterlimit: 4; fill: rgb(177,135,61); fill-rule: nonzero; opacity: 1;" vector-effect="non-scaling-stroke"  transform=" translate(-857.3, -592.4)" d="M 868.4 580 L 849.4 580 L 849.4 590.7 L 866.4 590.7 L 866.4 593.9000000000001 L 849.4 593.9000000000001 L 849.4 604.8000000000001 L 868.6999999999999 604.8000000000001 L 868.6999999999999 608.0000000000001 L 845.9 608.0000000000001 L 845.9 576.8000000000001 L 868.5 576.8000000000001 L 868.5 580 z" stroke-linecap="round" />
</g>
		<g transform="matrix(1 0 0 1 332.65 80.1)"  >
<path style="stroke: none; stroke-width: 1; stroke-dasharray: none; stroke-linecap: butt; stroke-dashoffset: 0; stroke-linejoin: miter; stroke-miterlimit: 4; fill: rgb(177,135,61); fill-rule: nonzero; opacity: 1;" vector-effect="non-scaling-stroke"  transform=" translate(-893.05, -592.4)" d="M 901.6 608 L 892.5 595.9 L 883.6 595.9 L 883.6 608 L 880.1 608 L 880.1 576.8 L 893.5 576.8 C 895.2 576.8 896.8 577 898.2 577.5 C 899.6 577.9 900.8000000000001 578.6 901.7 579.4 C 902.6 580.1999999999999 903.4000000000001 581.1999999999999 904 582.3 C 904.5 583.4 904.8 584.6999999999999 904.8 586.0999999999999 C 904.8 587.3999999999999 904.5999999999999 588.5999999999999 904.1999999999999 589.5999999999999 C 903.8 590.5999999999999 903.1999999999999 591.4999999999999 902.4 592.3 C 901.6 593.0999999999999 900.6999999999999 593.6999999999999 899.6999999999999 594.1999999999999 C 898.6999999999999 594.6999999999999 897.4999999999999 595.0999999999999 896.3 595.3 L 906 608 L 901.6 608 z M 899.2 581.7 C 897.8000000000001 580.6 895.8000000000001 580.1 893.3000000000001 580.1 L 883.6 580.1 L 883.6 592.8000000000001 L 893.2 592.8000000000001 C 894.4000000000001 592.8000000000001 895.4000000000001 592.7 896.4000000000001 592.4000000000001 C 897.4000000000001 592.1000000000001 898.2 591.7 898.9000000000001 591.1000000000001 C 899.6000000000001 590.5000000000001 900.2 589.9000000000001 900.6000000000001 589.1000000000001 C 901.0000000000001 588.3000000000002 901.2000000000002 587.4000000000001 901.2000000000002 586.4000000000001 C 901.3 584.3 900.6 582.8 899.2 581.7 z" stroke-linecap="round" />
</g>
		<g transform="matrix(1 0 0 1 366.85 80.05)"  >
<path style="stroke: none; stroke-width: 1; stroke-dasharray: none; stroke-linecap: butt; stroke-dashoffset: 0; stroke-linejoin: miter; stroke-miterlimit: 4; fill: rgb(177,135,61); fill-rule: nonzero; opacity: 1;" vector-effect="non-scaling-stroke"  transform=" translate(-927.25, -592.35)" d="M 929 608 L 925.5 608 L 925.5 595.6 L 912.5 576.7 L 916.8 576.7 L 927.3 592.3000000000001 L 937.9 576.7 L 942 576.7 L 929 595.5 L 929 608 z" stroke-linecap="round" />
</g>
		<g transform="matrix(1 0 0 1 -296 9.65)"  >
<path style="stroke: none; stroke-width: 1; stroke-dasharray: none; stroke-linecap: butt; stroke-dashoffset: 0; stroke-linejoin: miter; stroke-miterlimit: 4; fill: rgb(177,135,61); fill-rule: nonzero; opacity: 1;" vector-effect="non-scaling-stroke"  transform=" translate(-264.4, -521.95)" d="M 178.8 436.4 L 178.8 607.5 L 350 607.5 C 321.2 528.1 258.2 465.2 178.8 436.4 z M 228.8 588.1 L 198.20000000000002 588.1 L 198.20000000000002 557.5 L 228.8 557.5 L 228.8 588.1 z" stroke-linecap="round" />
</g>
		<g transform="matrix(1 0 0 1 -217.25 -69.25)"  >
<path style="stroke: none; stroke-width: 1; stroke-dasharray: none; stroke-linecap: butt; stroke-dashoffset: 0; stroke-linejoin: miter; stroke-miterlimit: 4; fill: rgb(212,184,136); fill-rule: nonzero; opacity: 1;" vector-effect="non-scaling-stroke"  transform=" translate(-343.15, -443.05)" d="M 315.8 415.7 L 315.8 470.4 L 370.5 470.4 L 370.5 415.7 L 315.8 415.7 z M 324.9 461.4 L 324.9 435.4 L 351.09999999999997 461.4 L 324.9 461.4 z M 361.4 450.9 L 335.2 424.9 L 361.4 424.9 L 361.4 450.9 z" stroke-linecap="round" />
</g>
		<g transform="matrix(1 0 0 1 -285.2 -32.8)"  >
<path style="stroke: none; stroke-width: 1; stroke-dasharray: none; stroke-linecap: butt; stroke-dashoffset: 0; stroke-linejoin: miter; stroke-miterlimit: 4; fill: rgb(177,135,61); fill-rule: nonzero; opacity: 1;" vector-effect="non-scaling-stroke"  transform=" translate(-275.2, -479.5)" d="M 315.8 470.5 L 315.8 415.8 L 179.9 415.8 C 248.7 436.6 306.6 482.70000000000005 342.70000000000005 543.2 L 370.50000000000006 543.2 L 370.50000000000006 470.50000000000006 L 315.8 470.50000000000006 z M 299.9 453.8 L 264.9 431.7 C 264.9 431.7 299.9 431.7 299.9 431.7 L 299.9 453.8 z M 332.4 486.4 L 354.5 486.4 C 354.5 486.4 354.5 521.4 354.5 521.4 L 332.4 486.4 z" stroke-linecap="round" />
</g>
</g>
</g>
</svg>