<?xml version="1.0" encoding="UTF-8" standalone="no" ?>
<!DOCTYPE svg PUBLIC "-//W3C//DTD SVG 1.1//EN" "http://www.w3.org/Graphics/SVG/1.1/DTD/svg11.dtd">
<svg xmlns="http://www.w3.org/2000/svg" xmlns:xlink="http://www.w3.org/1999/xlink" version="1.1" width="1080" height="1080" viewBox="0 0 1080 1080" xml:space="preserve">
<desc>Created with Fabric.js 4.2.0</desc>
<defs>
</defs>
<rect x="0" y="0" width="100%" height="100%" fill="transparent"></rect>
<g transform="matrix(1 0 0 1 540 540)" id="f4a9daec-5346-4df7-9ca2-d6f087822633"  >
<rect style="stroke: none; stroke-width: 1; stroke-dasharray: none; stroke-linecap: butt; stroke-dashoffset: 0; stroke-linejoin: miter; stroke-miterlimit: 4; fill: rgb(125,125,125); fill-rule: nonzero; opacity: 1; visibility: hidden;" vector-effect="non-scaling-stroke"  x="-540" y="-540" rx="0" ry="0" width="1080" height="1080" />
</g>
<g transform="matrix(1 0 0 1 540 540)" id="da886b38-e2ed-4c66-917d-081bcc1e7f90"  >
</g>
<g transform="matrix(3.54 0 0 3.54 540 540)"  >
<g style="" vector-effect="non-scaling-stroke"   >
		<g transform="matrix(1 0 0 1 -125.35 113)"  >
<path style="stroke: none; stroke-width: 1; stroke-dasharray: none; stroke-linecap: butt; stroke-dashoffset: 0; stroke-linejoin: miter; stroke-miterlimit: 4; fill: rgb(177,135,61); fill-rule: nonzero; opacity: 1;" vector-effect="non-scaling-stroke"  transform=" translate(-427.3, -596.85)" d="M 421.2 563.9 L 433.4 563.9 L 433.4 629.8 L 421.2 629.8 L 421.2 563.9 z" stroke-linecap="round" />
</g>
		<g transform="matrix(1 0 0 1 -56.85 113)"  >
<path style="stroke: none; stroke-width: 1; stroke-dasharray: none; stroke-linecap: butt; stroke-dashoffset: 0; stroke-linejoin: miter; stroke-miterlimit: 4; fill: rgb(177,135,61); fill-rule: nonzero; opacity: 1;" vector-effect="non-scaling-stroke"  transform=" translate(-495.8, -596.85)" d="M 547.1 563.9 L 525.3000000000001 629.8 L 512.3000000000001 629.8 L 496 581 L 479.4 629.8 L 466.29999999999995 629.8 L 444.49999999999994 563.9 L 457.19999999999993 563.9 L 473.5999999999999 614 L 490.5999999999999 563.9 L 501.8999999999999 563.9 L 518.5999999999999 614.3 L 535.4999999999999 563.9 L 547.1 563.9 z" stroke-linecap="round" />
</g>
		<g transform="matrix(1 0 0 1 28.85 113.1)"  >
<path style="stroke: none; stroke-width: 1; stroke-dasharray: none; stroke-linecap: butt; stroke-dashoffset: 0; stroke-linejoin: miter; stroke-miterlimit: 4; fill: rgb(177,135,61); fill-rule: nonzero; opacity: 1;" vector-effect="non-scaling-stroke"  transform=" translate(-581.5, -596.95)" d="M 597.8 614.6 L 564.8 614.6 L 558.3 629.9 L 545.6999999999999 629.9 L 575.4 564 L 587.5 564 L 617.3 629.9 L 604.5 629.9 L 597.8 614.6 z M 593.7 605 L 581.3000000000001 576.2 L 568.9 605 L 593.7 605 z" stroke-linecap="round" />
</g>
		<g transform="matrix(1 0 0 1 102.2 113)"  >
<path style="stroke: none; stroke-width: 1; stroke-dasharray: none; stroke-linecap: butt; stroke-dashoffset: 0; stroke-linejoin: miter; stroke-miterlimit: 4; fill: rgb(177,135,61); fill-rule: nonzero; opacity: 1;" vector-effect="non-scaling-stroke"  transform=" translate(-654.85, -596.85)" d="M 684.1 563.9 L 684.1 629.8 L 674 629.8 L 637.7 585.1999999999999 L 637.7 629.8 L 625.6 629.8 L 625.6 563.9 L 635.7 563.9 L 672 608.5 L 672 563.9 L 684.1 563.9 z" stroke-linecap="round" />
</g>
		<g transform="matrix(1 0 0 1 63.35 -120.75)"  >
<path style="stroke: none; stroke-width: 1; stroke-dasharray: none; stroke-linecap: butt; stroke-dashoffset: 0; stroke-linejoin: miter; stroke-miterlimit: 4; fill: rgb(212,184,136); fill-rule: nonzero; opacity: 1;" vector-effect="non-scaling-stroke"  transform=" translate(-616, -363.1)" d="M 590.7 337.8 L 590.7 388.40000000000003 L 641.3000000000001 388.40000000000003 L 641.3000000000001 337.8 L 590.7 337.8 z M 599 380 L 599 356 L 623.2 380 L 599 380 z M 632.8 370.2 L 608.5999999999999 346.2 L 632.8 346.2 L 632.8 370.2 z" stroke-linecap="round" />
</g>
		<g transform="matrix(1 0 0 1 -56.6 -0.9)"  >
<rect style="stroke: none; stroke-width: 1; stroke-dasharray: none; stroke-linecap: butt; stroke-dashoffset: 0; stroke-linejoin: miter; stroke-miterlimit: 4; fill: none; fill-rule: nonzero; opacity: 1;" vector-effect="non-scaling-stroke"  x="-14.15" y="-14.15" rx="0" ry="0" width="28.3" height="28.3" />
</g>
		<g transform="matrix(1 0 0 1 0.55 -87.2)"  >
<path style="stroke: none; stroke-width: 1; stroke-dasharray: none; stroke-linecap: butt; stroke-dashoffset: 0; stroke-linejoin: miter; stroke-miterlimit: 4; fill: rgb(177,135,61); fill-rule: nonzero; opacity: 1;" vector-effect="non-scaling-stroke"  transform=" translate(-553.2, -396.65)" d="M 590.7 388.4 L 590.7 337.79999999999995 L 465.1 337.79999999999995 C 528.7 356.99999999999994 582.2 399.59999999999997 615.6 455.49999999999994 L 641.3000000000001 455.49999999999994 L 641.3000000000001 388.29999999999995 L 590.7 388.29999999999995 z M 575.9 372.9 L 543.5 352.4 C 543.5 352.4 575.8 352.4 575.9 352.4 L 575.9 372.9 z M 606 403 L 626.4 403 C 626.4 403 626.4 435.4 626.4 435.4 L 606 403 z" stroke-linecap="round" />
</g>
		<g transform="matrix(1 0 0 1 -9.45 -47.9)"  >
<path style="stroke: none; stroke-width: 1; stroke-dasharray: none; stroke-linecap: butt; stroke-dashoffset: 0; stroke-linejoin: miter; stroke-miterlimit: 4; fill: rgb(177,135,61); fill-rule: nonzero; opacity: 1;" vector-effect="non-scaling-stroke"  transform=" translate(-543.2, -435.95)" d="M 464.1 356.9 L 464.1 515 L 622.3 515 C 595.6 441.6 537.4 383.5 464.1 356.9 z M 510.2 497.1 L 481.9 497.1 L 481.9 468.8 L 510.2 468.8 L 510.2 497.1 z" stroke-linecap="round" />
</g>
</g>
</g>
</svg>